<?xml version="1.0" encoding="utf-8"?>
<!-- Generator: Adobe Illustrator 19.0.0, SVG Export Plug-In . SVG Version: 6.00 Build 0)  -->
<svg version="1.1" id="Слой_1" xmlns="http://www.w3.org/2000/svg" xmlns:xlink="http://www.w3.org/1999/xlink" x="0px" y="0px"
	 viewBox="-75 77 48 48" style="enable-background:new -75 77 48 48;" xml:space="preserve">
<style type="text/css">
	.st0{fill:#E79686;}
	.st1{fill:#FFFFFF;}
</style>
<circle class="st0" cx="-51" cy="101" r="24"/>
<path class="st1" d="M-37,102.5c0.8,0,1.5-0.7,1.5-1.5s-0.7-1.5-1.5-1.5V102.5z M-64.1,99.9c-0.6,0.6-0.6,1.5,0,2.1l9.5,9.5
	c0.6,0.6,1.5,0.6,2.1,0s0.6-1.5,0-2.1l-8.5-8.5l8.5-8.5c0.6-0.6,0.6-1.5,0-2.1s-1.5-0.6-2.1,0L-64.1,99.9z M-37,99.5h-26v3h26V99.5z
	"/>
</svg>
