<svg width="48" height="48" viewBox="0 0 48 48" fill="none" xmlns="http://www.w3.org/2000/svg">
<circle cx="24" cy="24" r="24" fill="#FEE18C"/>
<path d="M38 25.5C38.8284 25.5 39.5 24.8284 39.5 24C39.5 23.1716 38.8284 22.5 38 22.5V25.5ZM10.9393 22.9393C10.3536 23.5251 10.3536 24.4749 10.9393 25.0607L20.4853 34.6066C21.0711 35.1924 22.0208 35.1924 22.6066 34.6066C23.1924 34.0208 23.1924 33.0711 22.6066 32.4853L14.1213 24L22.6066 15.5147C23.1924 14.9289 23.1924 13.9792 22.6066 13.3934C22.0208 12.8076 21.0711 12.8076 20.4853 13.3934L10.9393 22.9393ZM38 22.5L12 22.5V25.5L38 25.5V22.5Z" fill="#6A6A6A"/>
</svg>
