<svg id="svg" version="1.1" xmlns="http://www.w3.org/2000/svg" xmlns:xlink="http://www.w3.org/1999/xlink" width="400" height="319.92" viewBox="0, 0, 400,319.92"><g id="svgg"><path id="path0" d="M186.750 57.438 C 182.369 57.679,176.102 58.402,172.418 59.092 C 171.541 59.257,171.067 59.283,171.029 59.171 C 170.998 59.077,170.906 59.000,170.825 59.000 C 170.744 59.000,170.714 59.097,170.760 59.216 C 170.818 59.366,170.527 59.495,169.796 59.643 C 154.292 62.775,138.365 70.448,125.833 80.822 C 111.879 92.373,101.683 106.443,95.089 123.250 C 92.945 128.714,91.201 134.739,90.000 140.833 C 89.518 143.278,89.070 146.375,88.556 150.820 C 88.496 151.340,88.427 151.487,88.322 151.320 C 88.231 151.175,88.182 152.022,88.198 153.500 C 88.225 156.086,88.225 163.533,88.199 167.500 C 88.189 168.914,88.239 169.778,88.320 169.583 C 88.420 169.342,88.488 169.571,88.567 170.417 C 88.751 172.369,89.390 177.072,89.677 178.583 C 90.527 183.059,90.854 184.496,91.837 188.083 C 97.097 207.277,108.351 225.225,123.250 238.182 C 128.447 242.701,134.364 246.961,139.468 249.859 C 139.772 250.031,140.559 250.478,141.218 250.853 C 141.877 251.227,143.834 252.239,145.566 253.102 C 147.298 253.964,148.806 254.794,148.917 254.945 C 149.037 255.109,149.230 255.178,149.395 255.115 C 149.789 254.963,150.534 255.338,150.421 255.632 C 150.353 255.810,150.425 255.846,150.709 255.775 C 151.251 255.639,153.924 256.728,153.894 257.072 C 153.869 257.348,154.251 257.435,154.403 257.188 C 154.532 256.981,156.000 257.498,156.000 257.750 C 156.000 258.001,156.627 258.201,156.703 257.974 C 156.780 257.743,157.942 258.274,158.066 258.597 C 158.145 258.803,158.298 258.849,158.661 258.776 C 159.325 258.643,160.217 258.962,160.092 259.288 C 160.015 259.489,160.116 259.521,160.623 259.456 C 161.401 259.355,162.667 259.662,162.667 259.951 C 162.667 260.086,162.902 260.174,163.292 260.186 C 163.635 260.196,163.992 260.223,164.083 260.244 C 164.175 260.265,164.413 260.294,164.613 260.308 C 164.813 260.322,165.090 260.447,165.229 260.587 C 165.369 260.726,165.693 260.826,165.950 260.810 C 166.705 260.761,168.333 261.194,168.333 261.443 C 168.333 261.600,168.579 261.667,169.153 261.667 C 169.660 261.667,169.999 261.746,170.042 261.875 C 170.097 262.038,170.165 262.040,170.357 261.882 C 170.639 261.649,171.333 261.772,171.601 262.103 C 171.719 262.249,172.168 262.336,172.851 262.347 C 174.490 262.371,175.971 262.613,176.261 262.904 C 176.449 263.092,176.849 263.167,177.669 263.167 C 178.298 263.167,178.860 263.242,178.917 263.333 C 179.058 263.562,179.791 263.544,179.869 263.309 C 179.952 263.061,181.931 263.351,181.884 263.605 C 181.840 263.837,190.975 263.980,196.750 263.837 C 199.133 263.778,200.948 263.716,200.782 263.698 C 200.142 263.631,200.711 263.367,201.731 263.258 C 202.491 263.177,202.901 263.206,203.146 263.359 C 203.419 263.529,203.535 263.532,203.696 263.371 C 203.817 263.250,204.359 263.167,205.023 263.167 C 205.641 263.167,206.196 263.087,206.256 262.990 C 206.460 262.660,207.171 262.505,208.963 262.400 C 210.235 262.325,210.836 262.219,211.049 262.032 C 211.257 261.848,211.800 261.747,212.841 261.697 C 213.829 261.650,214.333 261.560,214.333 261.431 C 214.333 261.199,215.459 260.894,216.478 260.849 C 216.879 260.832,217.315 260.709,217.448 260.575 C 217.582 260.442,217.891 260.321,218.137 260.305 C 218.382 260.289,218.696 260.260,218.833 260.239 C 218.971 260.219,219.290 260.194,219.542 260.184 C 219.800 260.174,220.000 260.071,220.000 259.948 C 220.000 259.662,221.492 259.283,222.059 259.426 C 222.388 259.508,222.500 259.473,222.500 259.288 C 222.500 259.006,223.955 258.459,224.097 258.688 C 224.146 258.768,224.426 258.828,224.718 258.822 C 225.112 258.813,225.171 258.779,224.946 258.690 C 224.205 258.398,225.567 257.769,226.569 257.940 C 226.925 258.001,227.014 257.979,226.857 257.868 C 226.580 257.672,226.616 257.649,228.218 257.013 C 228.928 256.731,229.732 256.500,230.004 256.500 C 230.288 256.500,230.501 256.411,230.503 256.292 C 230.504 256.177,231.179 255.808,232.003 255.471 C 232.826 255.134,233.500 254.928,233.500 255.013 C 233.500 255.097,233.669 255.161,233.875 255.154 C 234.081 255.146,234.156 255.103,234.042 255.056 C 233.927 255.010,233.833 254.909,233.833 254.832 C 233.833 254.618,234.817 254.173,234.921 254.340 C 234.970 254.420,235.120 254.443,235.254 254.392 C 235.388 254.340,235.459 254.235,235.410 254.157 C 235.308 253.991,240.568 251.314,240.875 251.375 C 240.990 251.398,241.069 251.337,241.052 251.240 C 241.035 251.144,241.298 250.919,241.636 250.740 C 262.173 239.915,281.343 217.242,288.695 195.083 C 288.786 194.808,288.924 194.433,289.002 194.250 C 289.703 192.588,291.297 186.896,292.104 183.167 C 292.191 182.764,292.201 182.761,292.430 183.074 C 292.606 183.315,292.667 183.334,292.667 183.149 C 292.667 183.012,292.577 182.811,292.468 182.701 C 292.315 182.549,292.314 182.321,292.465 181.710 C 292.572 181.274,292.776 180.204,292.917 179.333 C 293.058 178.463,293.247 177.430,293.336 177.039 C 293.426 176.648,293.501 176.086,293.503 175.789 C 293.506 175.148,293.724 174.746,293.981 174.905 C 294.104 174.981,294.167 174.823,294.167 174.440 C 294.167 174.122,294.076 173.831,293.965 173.794 C 293.808 173.742,293.807 173.435,293.960 172.405 C 294.068 171.678,294.204 170.483,294.262 169.750 C 294.396 168.058,294.556 167.803,294.680 169.083 C 294.734 169.633,294.776 165.771,294.775 160.500 C 294.774 155.229,294.731 151.479,294.678 152.167 C 294.561 153.706,294.431 153.271,294.133 150.344 C 293.901 148.075,293.877 146.853,294.056 146.480 C 294.150 146.285,294.090 146.186,293.843 146.121 C 293.568 146.049,293.500 145.897,293.500 145.351 C 293.500 144.977,293.427 144.352,293.338 143.961 C 293.249 143.570,293.059 142.537,292.915 141.667 C 292.657 140.108,292.460 139.151,292.161 138.000 C 292.077 137.679,291.886 136.854,291.735 136.167 C 291.480 134.999,290.052 129.951,289.367 127.789 C 289.036 126.747,288.750 126.336,288.532 126.592 C 281.533 134.816,275.705 146.669,274.251 155.634 C 274.059 156.818,273.817 156.370,273.084 153.467 C 268.106 133.765,254.919 117.959,238.202 111.661 C 237.487 111.392,237.577 111.203,238.588 110.844 C 244.506 108.746,255.172 101.320,258.260 97.146 C 258.438 96.906,259.252 95.955,260.069 95.033 C 261.502 93.416,264.181 89.823,264.783 88.709 L 265.075 88.169 264.079 87.148 C 259.617 82.575,249.849 74.911,245.630 72.672 C 244.963 72.318,243.554 71.531,242.500 70.923 C 241.446 70.315,239.421 69.229,238.000 68.511 C 235.755 67.376,234.629 66.846,231.250 65.337 C 219.261 59.983,200.622 56.675,186.750 57.438 M153.885 129.502 C 155.265 130.019,158.167 133.009,158.167 133.914 C 158.167 133.963,158.309 134.322,158.482 134.710 C 163.286 145.474,155.497 159.972,148.402 153.473 C 140.578 146.308,145.168 126.241,153.885 129.502 M230.515 134.579 C 232.865 135.105,233.755 135.417,235.583 136.357 C 239.652 138.448,242.849 141.986,244.643 146.383 C 245.896 149.453,241.880 152.128,239.402 149.873 C 230.657 141.916,222.824 141.630,214.807 148.975 C 211.112 152.360,207.204 149.316,209.489 144.833 C 212.479 138.968,217.930 135.135,224.417 134.337 C 225.943 134.149,229.166 134.277,230.515 134.579 M294.615 154.292 C 294.573 154.452,294.539 154.321,294.539 154.000 C 294.539 153.679,294.573 153.548,294.615 153.708 C 294.657 153.869,294.657 154.131,294.615 154.292 M294.618 167.708 C 294.578 167.915,294.545 167.746,294.545 167.333 C 294.545 166.921,294.578 166.752,294.618 166.958 C 294.657 167.165,294.657 167.502,294.618 167.708 M152.886 173.688 C 153.086 173.791,153.850 174.454,154.583 175.161 C 157.437 177.911,163.050 181.544,168.283 184.029 C 186.641 192.745,205.344 191.238,222.167 179.689 C 224.678 177.965,225.646 177.201,227.266 175.665 C 231.465 171.684,233.086 173.620,231.663 180.917 C 228.637 196.432,214.363 208.784,196.667 211.200 C 194.603 211.482,186.896 211.480,185.083 211.197 C 170.196 208.872,157.938 199.788,152.996 187.417 C 152.703 186.683,152.400 185.933,152.323 185.750 C 151.473 183.724,150.505 178.651,150.501 176.202 C 150.499 174.399,151.736 173.094,152.886 173.688 " stroke="none" fill="#fbd054" fill-rule="evenodd"></path><path id="path1" d="M150.988 129.552 C 143.202 131.746,142.348 150.160,149.843 154.239 C 152.670 155.778,155.895 154.227,157.797 150.417 C 162.289 141.419,157.790 127.635,150.988 129.552 M223.130 134.762 C 217.168 135.950,212.344 139.644,209.603 145.121 C 208.554 147.217,208.919 149.028,210.550 149.817 C 212.069 150.552,213.001 150.272,215.055 148.462 C 222.766 141.667,230.933 141.816,238.639 148.892 C 240.438 150.543,241.465 150.849,242.947 150.176 C 244.381 149.525,244.947 147.924,244.329 146.273 C 241.292 138.174,231.821 133.031,223.130 134.762 M151.487 174.321 C 150.953 174.855,150.948 174.881,150.984 177.167 C 151.008 178.675,151.193 180.227,151.503 181.500 C 156.373 201.547,175.965 213.897,197.750 210.654 C 213.628 208.290,227.699 196.533,230.849 183.000 C 232.853 174.388,231.652 171.914,227.417 175.931 C 225.838 177.429,224.198 178.709,221.917 180.223 C 221.000 180.832,220.159 181.405,220.049 181.498 C 219.938 181.591,219.808 181.667,219.760 181.667 C 219.712 181.667,219.253 181.935,218.740 182.263 C 217.636 182.970,213.404 185.154,212.333 185.569 C 211.921 185.730,211.358 185.958,211.083 186.077 C 206.297 188.149,201.400 189.338,195.583 189.843 C 191.915 190.162,186.056 189.849,182.667 189.154 C 179.725 188.550,176.238 187.641,175.627 187.319 C 175.468 187.235,175.256 187.167,175.156 187.167 C 174.974 187.167,173.292 186.543,171.667 185.873 C 171.438 185.778,170.838 185.534,170.333 185.330 C 165.180 183.247,157.460 178.420,154.250 175.275 C 152.631 173.690,152.250 173.558,151.487 174.321 " stroke="none" fill="#543d36" fill-rule="evenodd"></path><path id="path2" d="M176.366 55.092 C 175.901 55.619,176.933 56.091,177.440 55.583 C 177.663 55.361,177.663 55.306,177.440 55.083 C 177.125 54.768,176.648 54.772,176.366 55.092 M180.427 56.984 C 180.375 57.068,180.371 57.237,180.418 57.360 C 180.488 57.542,180.016 57.573,177.847 57.529 C 175.231 57.476,174.449 57.594,174.543 58.028 C 174.583 58.210,174.436 58.227,172.136 58.299 L 171.022 58.333 171.037 58.833 C 171.044 59.108,171.069 59.333,171.090 59.333 C 171.112 59.333,171.719 59.223,172.440 59.088 C 191.667 55.488,214.669 57.933,231.250 65.337 C 234.629 66.846,235.755 67.376,238.000 68.511 C 239.421 69.229,241.446 70.315,242.500 70.923 C 243.554 71.531,244.963 72.318,245.630 72.672 C 249.849 74.911,259.617 82.575,264.079 87.148 L 265.075 88.169 264.783 88.709 C 264.181 89.823,261.502 93.416,260.069 95.033 C 259.252 95.955,258.438 96.906,258.260 97.146 C 255.172 101.320,244.506 108.746,238.588 110.844 C 237.577 111.203,237.487 111.392,238.202 111.661 C 254.919 117.959,268.106 133.765,273.084 153.467 C 273.817 156.370,274.059 156.818,274.251 155.634 C 275.705 146.669,281.533 134.816,288.532 126.592 C 288.750 126.336,289.036 126.747,289.367 127.789 C 290.108 130.128,291.490 135.032,291.749 136.250 C 291.906 136.983,292.093 137.771,292.166 138.000 C 292.238 138.229,292.378 138.829,292.477 139.333 C 292.576 139.837,292.734 140.625,292.829 141.083 C 293.045 142.131,293.338 143.972,293.477 145.165 C 293.561 145.885,293.651 146.093,293.901 146.141 C 294.395 146.235,294.190 141.558,293.682 141.146 C 293.409 140.924,293.339 140.637,293.299 139.563 C 293.253 138.330,293.226 138.247,292.860 138.195 C 292.533 138.148,292.488 138.071,292.578 137.712 C 292.792 136.861,292.486 134.632,292.143 134.542 C 291.665 134.417,291.685 132.507,292.167 132.382 C 292.641 132.258,292.588 131.725,292.089 131.600 C 291.834 131.536,291.711 131.411,291.765 131.270 C 291.816 131.137,291.711 131.007,291.509 130.954 C 291.242 130.884,291.167 130.730,291.167 130.250 C 291.167 129.776,291.091 129.616,290.833 129.548 C 290.568 129.479,290.500 129.320,290.498 128.772 C 290.494 127.795,290.350 127.377,289.985 127.281 C 289.569 127.172,289.578 126.896,290.000 126.785 C 290.183 126.737,290.333 126.587,290.333 126.452 C 290.333 126.316,290.483 126.166,290.667 126.118 C 290.850 126.070,291.000 125.929,291.000 125.805 C 291.000 125.681,291.169 125.502,291.375 125.408 C 291.581 125.315,291.731 125.147,291.708 125.036 C 291.685 124.921,291.842 124.833,292.072 124.833 C 292.502 124.833,292.749 124.408,292.578 123.962 C 292.515 123.800,292.603 123.679,292.824 123.621 C 293.012 123.572,293.167 123.420,293.167 123.285 C 293.167 123.150,293.322 122.998,293.512 122.948 C 293.703 122.899,293.899 122.703,293.948 122.512 C 294.000 122.317,294.175 122.167,294.353 122.167 C 294.541 122.167,294.667 122.049,294.667 121.873 C 294.667 121.711,294.835 121.502,295.042 121.408 C 295.248 121.315,295.400 121.154,295.381 121.052 C 295.361 120.950,295.529 120.820,295.756 120.763 C 296.014 120.699,296.167 120.542,296.167 120.340 C 296.167 120.082,296.305 120.009,296.875 119.968 C 297.416 119.929,297.578 119.851,297.562 119.638 C 297.550 119.472,297.705 119.318,297.944 119.258 C 298.204 119.193,298.329 119.056,298.298 118.870 C 298.266 118.681,298.377 118.565,298.625 118.530 C 298.831 118.501,299.000 118.379,299.000 118.260 C 299.000 118.134,299.289 117.996,299.683 117.933 C 300.135 117.861,300.393 117.725,300.444 117.530 C 300.486 117.369,300.685 117.165,300.885 117.077 C 301.086 116.989,301.229 116.842,301.203 116.750 C 301.177 116.658,301.439 116.546,301.786 116.500 C 302.233 116.441,302.465 116.307,302.581 116.042 C 302.672 115.835,302.878 115.667,303.040 115.667 C 303.222 115.667,303.333 115.541,303.333 115.333 C 303.333 115.054,303.444 115.000,304.016 115.000 C 304.544 115.000,304.716 114.929,304.780 114.686 C 304.837 114.470,305.072 114.338,305.531 114.264 C 306.003 114.189,306.226 114.061,306.286 113.829 C 306.334 113.648,306.483 113.500,306.618 113.500 C 306.754 113.500,306.904 113.350,306.952 113.167 C 307.029 112.869,307.179 112.833,308.332 112.833 C 309.714 112.833,309.947 112.718,310.013 111.998 C 310.109 110.971,309.996 110.322,309.708 110.233 C 309.548 110.183,309.286 110.073,309.127 109.988 C 308.968 109.903,308.571 109.833,308.245 109.833 C 307.773 109.833,307.662 109.774,307.701 109.542 C 307.734 109.347,307.625 109.232,307.375 109.197 C 307.139 109.163,307.000 109.028,307.000 108.833 C 307.000 108.662,306.858 108.477,306.685 108.422 C 306.511 108.367,306.331 108.175,306.284 107.994 C 306.232 107.797,306.056 107.667,305.842 107.667 C 305.599 107.667,305.501 107.577,305.534 107.386 C 305.598 107.023,305.063 106.871,303.644 106.850 C 302.715 106.836,302.541 106.788,302.560 106.553 C 302.573 106.399,302.433 106.230,302.250 106.178 C 302.067 106.126,301.917 105.971,301.917 105.833 C 301.917 105.658,301.704 105.568,301.208 105.532 C 300.638 105.491,300.500 105.418,300.500 105.160 C 300.500 104.958,300.347 104.801,300.084 104.735 C 299.856 104.678,299.716 104.556,299.773 104.464 C 299.922 104.222,299.501 104.006,298.875 104.003 C 298.452 104.001,298.333 103.930,298.333 103.678 C 298.333 103.473,298.198 103.336,297.958 103.299 C 297.752 103.268,297.604 103.144,297.630 103.023 C 297.655 102.903,297.518 102.763,297.325 102.713 C 297.132 102.662,296.907 102.444,296.825 102.227 C 296.736 101.995,296.539 101.833,296.343 101.833 C 296.117 101.833,296.041 101.754,296.106 101.586 C 296.168 101.423,296.049 101.280,295.757 101.169 C 295.513 101.077,295.357 100.929,295.411 100.842 C 295.539 100.635,294.967 100.333,294.447 100.333 C 294.179 100.333,294.009 100.219,293.952 100.000 C 293.899 99.798,293.724 99.667,293.508 99.667 C 293.261 99.667,293.167 99.577,293.201 99.375 C 293.234 99.180,293.125 99.066,292.875 99.030 C 292.643 98.997,292.500 98.861,292.500 98.673 C 292.500 98.492,292.339 98.329,292.102 98.269 C 291.856 98.208,291.712 98.057,291.727 97.876 C 291.741 97.690,291.613 97.564,291.375 97.530 C 291.144 97.497,291.000 97.361,291.000 97.175 C 291.000 97.008,290.850 96.833,290.667 96.785 C 290.483 96.737,290.333 96.583,290.333 96.444 C 290.333 96.304,290.191 96.144,290.018 96.089 C 289.845 96.034,289.664 95.841,289.617 95.661 C 289.569 95.478,289.389 95.333,289.209 95.333 C 288.956 95.333,288.883 95.208,288.865 94.742 C 288.838 94.008,288.734 93.833,288.329 93.833 C 288.116 93.833,288.042 93.751,288.106 93.586 C 288.168 93.423,288.049 93.280,287.757 93.169 C 287.513 93.077,287.360 92.925,287.417 92.833 C 287.474 92.741,287.328 92.593,287.093 92.504 C 286.829 92.403,286.667 92.213,286.667 92.004 C 286.667 91.778,286.557 91.667,286.333 91.667 C 286.063 91.667,286.000 91.556,286.000 91.078 C 286.000 90.620,285.917 90.459,285.626 90.351 C 285.420 90.275,285.251 90.071,285.251 89.898 C 285.250 89.699,285.112 89.564,284.875 89.530 C 284.644 89.497,284.500 89.361,284.500 89.175 C 284.500 89.008,284.355 88.834,284.178 88.788 C 283.944 88.727,283.841 88.530,283.803 88.067 C 283.764 87.597,283.663 87.406,283.417 87.340 C 283.164 87.272,283.083 87.109,283.083 86.667 C 283.083 86.221,282.995 86.044,282.707 85.918 C 282.500 85.827,282.285 85.602,282.229 85.418 C 282.173 85.234,282.030 84.971,281.912 84.833 C 281.794 84.696,281.671 84.396,281.640 84.167 C 281.601 83.883,281.463 83.733,281.206 83.696 C 280.998 83.667,280.873 83.571,280.927 83.484 C 281.130 83.155,280.815 82.333,280.487 82.333 C 280.219 82.333,280.167 82.212,280.167 81.583 C 280.167 80.944,280.117 80.833,279.833 80.833 C 279.556 80.833,279.500 80.722,279.500 80.170 C 279.500 79.613,279.437 79.491,279.109 79.408 C 278.807 79.332,278.734 79.221,278.791 78.924 C 278.877 78.475,278.580 77.833,278.286 77.833 C 278.010 77.833,278.033 76.278,278.314 75.941 C 278.604 75.590,278.487 75.118,278.082 75.007 C 277.799 74.930,277.749 74.772,277.744 73.929 C 277.741 73.305,277.664 72.916,277.536 72.873 C 277.399 72.828,277.333 72.371,277.333 71.471 C 277.333 70.259,277.301 70.127,276.987 70.045 C 276.797 69.995,276.574 69.777,276.491 69.561 C 276.409 69.344,276.227 69.167,276.087 69.167 C 275.888 69.167,275.833 68.950,275.833 68.151 C 275.833 67.276,275.787 67.123,275.500 67.048 C 275.241 66.981,275.167 66.821,275.167 66.332 C 275.167 65.612,274.999 65.500,273.917 65.500 C 272.727 65.500,272.708 65.525,272.797 66.925 C 272.853 67.785,272.819 68.167,272.689 68.167 C 272.585 68.167,272.500 68.355,272.500 68.586 C 272.500 68.962,272.234 69.615,271.991 69.833 C 271.554 70.226,271.149 71.659,271.118 72.923 C 271.087 74.180,271.050 74.325,270.750 74.369 C 270.549 74.398,270.434 74.524,270.461 74.688 C 270.486 74.838,270.366 74.996,270.193 75.041 C 269.931 75.110,269.867 75.331,269.798 76.396 C 269.717 77.668,268.740 80.167,268.324 80.167 C 268.238 80.167,268.167 80.317,268.167 80.500 C 268.167 80.683,268.092 80.833,268.000 80.833 C 267.908 80.833,267.833 81.016,267.833 81.240 C 267.833 81.464,267.758 81.693,267.667 81.750 C 267.575 81.807,267.500 81.963,267.500 82.096 C 267.500 82.230,267.294 82.650,267.042 83.030 C 266.790 83.409,266.458 83.914,266.304 84.152 C 266.150 84.389,266.019 84.838,266.012 85.149 C 265.979 86.711,263.937 87.124,263.342 85.688 C 263.128 85.171,262.438 84.476,261.167 83.495 C 260.237 82.778,259.001 81.466,259.102 81.303 C 259.144 81.236,258.987 81.057,258.755 80.905 C 258.523 80.753,258.333 80.524,258.333 80.397 C 258.333 80.271,258.214 80.167,258.068 80.167 C 257.922 80.167,257.763 80.016,257.714 79.832 C 257.666 79.647,257.458 79.454,257.251 79.402 C 257.034 79.348,256.884 79.189,256.896 79.029 C 256.912 78.816,256.749 78.738,256.208 78.699 C 255.638 78.658,255.500 78.585,255.500 78.327 C 255.500 78.126,255.348 77.968,255.094 77.905 C 254.842 77.841,254.722 77.717,254.776 77.575 C 254.831 77.431,254.705 77.307,254.432 77.239 C 254.170 77.173,254.000 77.014,254.000 76.835 C 254.000 76.535,253.562 76.340,252.880 76.336 C 252.620 76.334,252.539 76.259,252.607 76.083 C 252.675 75.905,252.559 75.804,252.206 75.733 C 251.882 75.668,251.716 75.538,251.730 75.359 C 251.742 75.196,251.604 75.063,251.393 75.033 C 251.131 74.995,251.059 74.895,251.121 74.657 C 251.195 74.375,251.117 74.333,250.515 74.333 C 249.932 74.333,249.800 74.269,249.667 73.917 C 249.570 73.662,249.377 73.500,249.171 73.500 C 248.985 73.500,248.842 73.444,248.853 73.375 C 248.921 72.944,248.780 72.833,248.167 72.833 C 247.625 72.833,247.500 72.775,247.500 72.519 C 247.500 72.203,247.081 72.007,246.394 72.002 C 246.180 72.001,246.004 71.867,245.952 71.667 C 245.883 71.404,245.724 71.333,245.201 71.333 C 244.671 71.333,244.542 71.274,244.560 71.042 C 244.575 70.857,244.446 70.731,244.208 70.697 C 243.977 70.664,243.833 70.528,243.833 70.341 C 243.833 70.029,243.401 69.840,242.681 69.836 C 242.459 69.834,242.327 69.784,242.387 69.724 C 242.605 69.506,242.114 69.167,241.582 69.167 C 241.182 69.167,241.016 69.080,240.953 68.838 C 240.892 68.605,240.669 68.478,240.183 68.400 C 239.801 68.339,239.500 68.198,239.500 68.080 C 239.500 67.822,239.127 67.667,238.506 67.667 C 238.179 67.667,238.013 67.567,237.952 67.333 C 237.882 67.068,237.724 67.000,237.175 67.000 C 236.611 67.000,236.494 66.947,236.534 66.708 C 236.573 66.480,236.446 66.405,235.949 66.364 C 235.540 66.331,235.278 66.212,235.211 66.031 C 235.063 65.629,234.826 65.505,234.201 65.503 C 233.771 65.501,233.663 65.437,233.701 65.208 C 233.743 64.958,233.589 64.910,232.625 64.867 C 231.662 64.825,231.500 64.774,231.500 64.512 C 231.500 64.196,231.071 64.006,230.347 64.002 C 230.126 64.001,229.994 63.951,230.054 63.890 C 230.348 63.597,229.729 63.333,228.745 63.333 C 227.780 63.333,227.705 63.307,227.785 63.000 C 227.866 62.691,227.790 62.667,226.762 62.667 C 225.813 62.667,225.659 62.626,225.701 62.386 C 225.758 62.059,225.252 61.875,224.228 61.850 C 223.687 61.837,223.520 61.762,223.452 61.500 C 223.377 61.213,223.224 61.167,222.349 61.167 C 221.444 61.167,221.333 61.130,221.333 60.833 C 221.333 60.489,221.097 60.445,219.127 60.423 C 218.784 60.420,218.497 60.342,218.488 60.250 C 218.444 59.795,218.072 59.667,216.795 59.667 C 215.715 59.667,215.481 59.622,215.555 59.430 C 215.693 59.071,215.241 58.979,213.505 59.015 C 212.032 59.045,211.913 59.023,211.867 58.715 C 211.813 58.356,209.414 58.046,208.513 58.282 C 208.196 58.365,208.131 58.333,208.209 58.130 C 208.416 57.590,207.980 57.500,205.152 57.500 C 202.605 57.500,202.372 57.475,202.394 57.208 C 202.420 56.879,180.629 56.656,180.427 56.984 M161.940 58.083 C 161.785 58.486,162.006 58.833,162.417 58.833 C 162.827 58.833,163.048 58.486,162.894 58.083 C 162.841 57.946,162.626 57.833,162.417 57.833 C 162.207 57.833,161.992 57.946,161.940 58.083 M167.475 59.119 C 167.461 59.191,167.442 59.354,167.432 59.482 C 167.419 59.664,167.064 59.709,165.762 59.694 C 164.204 59.675,163.544 59.833,163.755 60.175 C 163.830 60.297,163.344 60.398,162.000 60.540 C 161.720 60.569,161.591 60.679,161.606 60.875 C 161.626 61.121,161.482 61.167,160.690 61.169 C 159.666 61.172,159.288 61.318,159.366 61.682 C 159.395 61.818,159.312 61.893,159.167 61.861 C 158.491 61.711,157.167 62.026,157.167 62.337 C 157.167 62.605,157.016 62.658,156.125 62.700 C 155.252 62.742,155.087 62.797,155.106 63.042 C 155.126 63.286,154.985 63.333,154.245 63.333 C 153.224 63.333,152.833 63.448,152.833 63.749 C 152.833 63.874,152.523 64.009,152.083 64.075 C 151.491 64.163,151.333 64.255,151.333 64.510 C 151.333 64.795,151.212 64.833,150.318 64.833 C 149.442 64.833,149.290 64.879,149.215 65.167 C 149.151 65.410,148.986 65.501,148.606 65.503 C 147.973 65.506,147.632 65.699,147.700 66.015 C 147.735 66.181,147.530 66.274,147.000 66.333 C 146.402 66.400,146.260 66.476,146.299 66.708 C 146.339 66.947,146.223 67.000,145.658 67.000 C 145.109 67.000,144.951 67.068,144.882 67.333 C 144.821 67.567,144.654 67.667,144.328 67.667 C 143.707 67.667,143.333 67.822,143.333 68.080 C 143.333 68.197,143.037 68.338,142.667 68.397 C 142.148 68.480,142.000 68.578,142.000 68.835 C 142.000 69.112,141.888 69.167,141.318 69.167 C 140.776 69.167,140.618 69.235,140.548 69.500 C 140.487 69.733,140.321 69.833,139.994 69.833 C 139.315 69.833,139.000 69.994,139.000 70.342 C 139.000 70.582,138.849 70.658,138.292 70.699 C 137.737 70.739,137.588 70.813,137.606 71.042 C 137.621 71.229,137.512 71.333,137.299 71.333 C 137.109 71.333,136.932 71.475,136.882 71.667 C 136.823 71.893,136.653 72.001,136.356 72.003 C 135.830 72.006,135.417 72.240,135.417 72.536 C 135.417 72.669,135.148 72.769,134.708 72.801 C 134.151 72.842,134.000 72.918,134.000 73.158 C 134.000 73.345,133.838 73.504,133.583 73.568 C 133.314 73.636,133.167 73.790,133.167 74.003 C 133.167 74.277,133.053 74.333,132.500 74.333 C 131.952 74.333,131.833 74.391,131.833 74.655 C 131.833 74.862,131.699 74.996,131.458 75.030 C 131.221 75.064,131.092 75.190,131.106 75.375 C 131.121 75.562,131.012 75.667,130.799 75.667 C 130.615 75.667,130.432 75.807,130.386 75.983 C 130.327 76.210,130.094 76.331,129.568 76.410 C 129.009 76.494,128.833 76.593,128.833 76.824 C 128.833 76.994,128.677 77.169,128.478 77.221 C 128.241 77.283,128.156 77.400,128.223 77.573 C 128.290 77.748,128.227 77.833,128.028 77.833 C 127.640 77.833,127.337 78.149,127.448 78.437 C 127.515 78.612,127.352 78.667,126.768 78.667 C 126.126 78.667,126.000 78.718,126.000 78.982 C 126.000 79.182,125.842 79.337,125.568 79.406 C 125.282 79.477,125.168 79.595,125.229 79.755 C 125.290 79.914,125.180 80.032,124.911 80.100 C 124.655 80.164,124.500 80.322,124.500 80.518 C 124.500 80.722,124.383 80.833,124.167 80.833 C 123.950 80.833,123.833 80.944,123.833 81.150 C 123.833 81.517,122.399 81.744,122.266 81.398 C 122.155 81.109,121.364 81.012,121.264 81.275 C 121.087 81.735,121.358 82.037,121.857 81.937 C 122.200 81.868,122.333 81.907,122.333 82.076 C 122.333 82.205,122.165 82.334,121.958 82.363 C 121.715 82.398,121.600 82.515,121.630 82.696 C 121.660 82.878,121.543 82.994,121.296 83.030 C 121.055 83.064,120.925 83.189,120.940 83.375 C 120.954 83.559,120.845 83.667,120.644 83.667 C 120.457 83.667,120.259 83.839,120.167 84.083 C 120.017 84.477,119.500 84.679,119.500 84.345 C 119.500 84.120,118.889 83.960,118.500 84.083 C 118.104 84.209,118.076 84.433,118.413 84.770 C 118.598 84.955,118.739 84.973,118.985 84.841 C 119.415 84.611,119.500 84.621,119.500 84.899 C 119.500 85.026,119.306 85.179,119.068 85.239 C 118.795 85.307,118.669 85.431,118.724 85.575 C 118.778 85.717,118.658 85.841,118.406 85.905 C 118.153 85.968,118.000 86.126,118.000 86.325 C 118.000 86.528,117.865 86.663,117.625 86.697 C 117.387 86.731,117.266 86.849,117.294 87.022 C 117.362 87.433,116.537 87.546,116.409 87.143 C 116.291 86.770,115.787 86.737,115.500 87.083 C 115.201 87.443,115.596 87.887,116.102 87.760 C 116.310 87.708,116.521 87.733,116.572 87.815 C 116.623 87.897,116.477 88.011,116.249 88.069 C 116.020 88.126,115.833 88.286,115.833 88.424 C 115.833 88.562,115.638 88.749,115.400 88.840 C 115.126 88.944,115.000 89.092,115.057 89.242 C 115.116 89.396,115.020 89.498,114.782 89.531 C 114.551 89.564,114.397 89.721,114.363 89.958 C 114.312 90.323,113.667 90.526,113.667 90.178 C 113.667 89.953,113.056 89.793,112.667 89.917 C 112.483 89.975,112.333 90.125,112.333 90.250 C 112.333 90.536,112.894 90.723,113.333 90.583 C 113.570 90.508,113.667 90.553,113.667 90.739 C 113.667 90.889,113.525 91.000,113.333 91.000 C 113.115 91.000,113.000 91.111,113.000 91.322 C 113.000 91.529,112.866 91.663,112.625 91.697 C 112.313 91.741,112.241 91.869,112.199 92.458 C 112.157 93.031,112.085 93.167,111.824 93.167 C 111.615 93.167,111.500 93.281,111.500 93.488 C 111.500 93.695,111.366 93.829,111.125 93.863 C 110.879 93.898,110.750 94.031,110.750 94.250 C 110.750 94.469,110.621 94.602,110.375 94.637 C 110.140 94.670,110.000 94.805,110.000 95.000 C 110.000 95.195,109.860 95.330,109.625 95.363 C 109.321 95.407,109.240 95.539,109.197 96.060 C 109.159 96.530,109.057 96.727,108.822 96.788 C 108.645 96.834,108.500 97.005,108.500 97.167 C 108.500 97.329,108.350 97.500,108.167 97.548 C 107.983 97.596,107.833 97.743,107.833 97.874 C 107.833 98.006,107.638 98.202,107.399 98.311 C 107.028 98.480,106.974 98.594,107.032 99.088 C 107.088 99.568,107.046 99.667,106.784 99.667 C 106.611 99.667,106.430 99.814,106.383 99.994 C 106.336 100.175,106.163 100.365,105.999 100.417 C 105.671 100.521,105.445 101.162,105.596 101.557 C 105.662 101.728,105.570 101.824,105.304 101.862 C 105.046 101.898,104.917 102.028,104.917 102.250 C 104.917 102.469,104.788 102.602,104.542 102.637 C 104.225 102.682,104.167 102.792,104.167 103.345 C 104.167 103.821,104.097 104.000,103.913 104.000 C 103.773 104.000,103.587 104.188,103.500 104.417 C 103.403 104.672,103.211 104.833,103.004 104.833 C 102.722 104.833,102.667 104.942,102.667 105.500 C 102.667 105.986,102.598 106.167,102.413 106.167 C 102.102 106.167,101.788 106.929,101.924 107.355 C 101.998 107.591,101.938 107.667,101.678 107.667 C 101.446 107.667,101.333 107.774,101.333 107.997 C 101.333 108.210,101.186 108.364,100.917 108.432 C 100.562 108.521,100.500 108.632,100.500 109.185 C 100.500 109.710,100.440 109.833,100.185 109.833 C 99.835 109.833,99.589 110.494,99.751 111.002 C 99.823 111.231,99.751 111.322,99.466 111.362 C 99.146 111.408,99.083 111.517,99.083 112.034 C 99.083 112.536,99.013 112.669,98.708 112.746 C 98.398 112.823,98.333 112.954,98.333 113.503 C 98.333 113.975,98.263 114.167,98.089 114.167 C 97.768 114.167,97.448 114.782,97.555 115.193 C 97.617 115.429,97.526 115.562,97.224 115.677 C 96.866 115.813,96.816 115.922,96.862 116.459 C 96.909 116.999,96.866 117.091,96.542 117.137 C 96.227 117.181,96.167 117.293,96.167 117.834 C 96.167 118.327,96.090 118.502,95.839 118.581 C 95.482 118.695,95.241 119.553,95.372 120.241 C 95.433 120.560,95.365 120.664,95.041 120.746 C 94.680 120.836,94.640 120.923,94.695 121.501 C 94.748 122.054,94.706 122.161,94.420 122.202 C 94.130 122.243,94.077 122.393,94.034 123.292 C 93.997 124.056,93.921 124.333,93.748 124.333 C 93.396 124.333,93.167 124.884,93.167 125.728 C 93.167 126.331,93.102 126.498,92.833 126.583 C 92.550 126.673,92.500 126.836,92.500 127.667 C 92.500 128.498,92.450 128.660,92.167 128.750 C 91.890 128.838,91.828 129.017,91.803 129.803 C 91.786 130.324,91.764 130.930,91.754 131.150 C 91.743 131.401,91.599 131.601,91.368 131.686 C 91.044 131.806,91.000 131.943,91.000 132.828 C 91.000 133.722,90.963 133.833,90.667 133.833 C 90.359 133.833,90.333 133.944,90.333 135.250 C 90.333 136.383,90.284 136.667,90.089 136.667 C 89.655 136.667,89.479 137.316,89.514 138.787 C 89.546 140.121,89.523 140.234,89.191 140.357 C 88.851 140.483,88.833 140.594,88.833 142.559 C 88.833 144.488,88.811 144.634,88.500 144.715 C 88.181 144.798,88.167 144.941,88.169 147.943 C 88.172 150.973,88.369 152.439,88.556 150.820 C 89.070 146.375,89.518 143.278,90.000 140.833 C 91.891 131.239,94.963 122.334,99.342 113.750 C 113.468 86.062,140.040 65.655,169.794 59.643 C 170.369 59.527,170.813 59.354,170.781 59.258 C 170.713 59.055,167.513 58.920,167.475 59.119 M153.208 60.940 C 152.886 61.076,152.962 61.465,153.333 61.583 C 153.821 61.738,154.362 61.520,154.300 61.194 C 154.247 60.917,153.613 60.770,153.208 60.940 M147.375 63.777 C 146.983 63.935,147.360 64.667,147.833 64.667 C 148.065 64.667,148.500 64.251,148.500 64.030 C 148.500 63.738,147.839 63.590,147.375 63.777 M272.249 63.835 C 272.064 64.135,272.345 64.667,272.690 64.667 C 273.203 64.667,273.583 64.218,273.329 63.912 C 273.097 63.632,272.405 63.583,272.249 63.835 M141.578 66.850 C 141.430 67.317,141.711 67.567,142.238 67.435 C 142.720 67.314,142.781 67.090,142.429 66.738 C 142.086 66.395,141.707 66.445,141.578 66.850 M269.375 66.749 C 269.065 67.101,269.122 67.314,269.500 67.215 C 269.684 67.167,269.833 66.988,269.833 66.814 C 269.833 66.444,269.665 66.420,269.375 66.749 M280.333 66.667 C 280.333 66.758,280.446 66.833,280.583 66.833 C 280.721 66.833,280.833 66.758,280.833 66.667 C 280.833 66.575,280.721 66.500,280.583 66.500 C 280.446 66.500,280.333 66.575,280.333 66.667 M280.995 68.097 C 280.722 68.815,280.814 69.780,281.250 70.766 C 281.479 71.284,281.667 71.840,281.667 72.000 C 281.667 72.308,282.112 72.777,282.262 72.627 C 282.716 72.173,282.480 68.674,281.987 68.545 C 281.811 68.499,281.667 68.328,281.667 68.165 C 281.667 67.668,281.177 67.619,280.995 68.097 M135.875 69.610 C 135.503 69.760,135.654 70.130,136.159 70.306 C 136.584 70.454,136.665 70.433,136.753 70.157 C 136.930 69.598,136.527 69.347,135.875 69.610 M130.000 72.583 C 129.758 72.875,130.033 73.333,130.449 73.333 C 130.920 73.333,131.225 72.868,130.940 72.583 C 130.803 72.446,130.582 72.333,130.449 72.333 C 130.316 72.333,130.114 72.446,130.000 72.583 M266.542 75.381 C 266.335 75.474,266.167 75.652,266.167 75.775 C 266.167 76.079,266.820 76.062,266.938 75.755 C 267.095 75.346,266.940 75.200,266.542 75.381 M127.042 75.440 C 126.720 75.576,126.795 75.965,127.167 76.083 C 127.654 76.238,128.195 76.020,128.133 75.694 C 128.081 75.417,127.447 75.270,127.042 75.440 M124.106 78.417 C 123.952 78.819,124.172 79.167,124.581 79.167 C 124.789 79.167,125.053 79.054,125.167 78.917 C 125.441 78.586,125.113 78.167,124.581 78.167 C 124.373 78.167,124.159 78.279,124.106 78.417 M263.533 78.426 C 263.353 78.629,263.358 78.715,263.562 78.919 C 263.878 79.235,264.236 79.234,264.500 78.917 C 264.945 78.381,263.997 77.900,263.533 78.426 M109.667 92.917 C 109.425 93.208,109.699 93.667,110.116 93.667 C 110.587 93.667,110.892 93.201,110.607 92.917 C 110.470 92.779,110.248 92.667,110.116 92.667 C 109.983 92.667,109.781 92.779,109.667 92.917 M106.708 95.749 C 106.428 96.067,106.446 96.277,106.764 96.399 C 107.517 96.688,108.097 96.269,107.665 95.748 C 107.408 95.438,106.982 95.439,106.708 95.749 M103.839 98.743 C 103.443 99.221,104.215 99.561,104.823 99.177 C 105.021 99.051,105.025 98.980,104.844 98.763 C 104.571 98.434,104.104 98.424,103.839 98.743 M100.875 104.440 C 100.520 104.590,100.646 104.988,101.083 105.098 C 101.643 105.239,102.037 105.066,101.969 104.709 C 101.914 104.417,101.292 104.265,100.875 104.440 M98.042 110.277 C 97.650 110.435,98.027 111.167,98.500 111.167 C 98.732 111.167,99.167 110.751,99.167 110.530 C 99.167 110.238,98.506 110.090,98.042 110.277 M95.106 113.250 C 94.951 113.655,95.173 114.000,95.590 114.000 C 95.986 114.000,96.286 113.495,96.084 113.168 C 95.924 112.909,95.214 112.969,95.106 113.250 M92.273 121.917 C 92.131 122.288,92.328 122.667,92.664 122.667 C 92.826 122.667,93.053 122.554,93.167 122.417 C 93.422 122.109,93.126 121.667,92.664 121.667 C 92.502 121.667,92.326 121.779,92.273 121.917 M89.668 130.532 C 89.117 130.736,89.086 130.786,89.330 131.079 C 89.597 131.401,90.066 131.406,90.329 131.088 C 90.644 130.709,90.199 130.336,89.668 130.532 M86.375 142.249 C 86.095 142.567,86.113 142.777,86.430 142.899 C 87.154 143.177,87.602 142.919,87.416 142.332 C 87.293 141.944,86.686 141.896,86.375 142.249 M293.897 147.875 C 293.957 148.448,294.077 149.650,294.163 150.547 C 294.501 154.056,294.770 153.432,294.817 149.031 C 294.835 147.341,294.678 146.833,294.138 146.833 C 293.807 146.833,293.793 146.893,293.897 147.875 M87.496 153.761 C 87.320 154.225,87.264 165.780,87.434 166.630 C 87.507 166.995,87.649 167.156,87.946 167.213 L 88.357 167.292 88.245 165.521 C 88.102 163.240,88.106 158.119,88.252 155.433 C 88.365 153.367,88.362 153.333,88.013 153.333 C 87.786 153.333,87.600 153.487,87.496 153.761 M294.539 154.000 C 294.539 154.321,294.573 154.452,294.615 154.292 C 294.657 154.131,294.657 153.869,294.615 153.708 C 294.573 153.548,294.539 153.679,294.539 154.000 M294.545 167.333 C 294.545 167.746,294.578 167.915,294.618 167.708 C 294.657 167.502,294.657 167.165,294.618 166.958 C 294.578 166.752,294.545 166.921,294.545 167.333 M294.450 168.333 C 294.391 168.471,294.261 169.446,294.160 170.500 C 294.060 171.554,293.936 172.743,293.886 173.142 C 293.798 173.844,293.808 173.864,294.189 173.747 C 294.749 173.574,294.739 173.598,294.797 172.280 C 294.859 170.864,294.605 167.974,294.450 168.333 M88.289 169.667 C 87.953 170.855,88.153 175.824,88.542 175.921 C 88.908 176.012,88.915 176.060,88.865 177.997 C 88.815 179.933,88.824 179.986,89.215 180.242 C 89.585 180.485,89.609 180.587,89.540 181.591 C 89.441 183.030,89.592 183.787,90.006 183.919 C 90.296 184.010,90.333 184.177,90.333 185.360 C 90.333 186.549,90.370 186.707,90.660 186.783 C 90.946 186.858,90.993 187.040,91.035 188.226 C 91.080 189.490,91.109 189.587,91.458 189.637 C 91.802 189.685,91.833 189.777,91.833 190.750 C 91.833 191.664,91.879 191.825,92.167 191.917 C 92.450 192.007,92.500 192.169,92.500 193.000 C 92.500 193.880,92.536 193.982,92.868 194.030 C 93.200 194.078,93.232 194.167,93.190 194.935 C 93.146 195.762,93.414 196.333,93.845 196.333 C 93.930 196.333,93.991 196.390,93.980 196.458 C 93.849 197.291,94.034 198.322,94.333 198.417 C 94.591 198.498,94.667 198.669,94.667 199.166 C 94.667 199.707,94.727 199.819,95.042 199.863 C 95.357 199.908,95.408 200.003,95.362 200.460 C 95.274 201.341,95.481 202.000,95.847 202.000 C 96.110 202.000,96.167 202.121,96.167 202.682 C 96.167 203.218,96.236 203.383,96.491 203.449 C 96.723 203.510,96.830 203.705,96.866 204.138 C 96.901 204.551,97.026 204.797,97.263 204.914 C 97.454 205.009,97.578 205.182,97.539 205.300 C 97.408 205.692,97.663 206.310,98.000 206.417 C 98.257 206.498,98.333 206.669,98.333 207.158 C 98.333 207.646,98.408 207.814,98.655 207.878 C 98.876 207.936,98.993 208.137,99.030 208.523 C 99.067 208.913,99.197 209.133,99.457 209.247 C 99.711 209.359,99.801 209.506,99.738 209.706 C 99.599 210.141,99.806 210.635,100.175 210.753 C 100.422 210.831,100.500 211.008,100.500 211.492 C 100.500 211.988,100.573 212.147,100.833 212.215 C 101.037 212.268,101.167 212.442,101.167 212.662 C 101.167 213.161,101.463 213.667,101.756 213.667 C 101.890 213.667,102.000 213.817,102.000 214.000 C 102.000 214.222,102.111 214.333,102.333 214.333 C 102.611 214.333,102.667 214.444,102.667 215.004 C 102.667 215.565,102.734 215.701,103.080 215.832 C 103.327 215.926,103.459 216.080,103.407 216.216 C 103.279 216.549,103.621 217.333,103.893 217.333 C 104.022 217.333,104.167 217.483,104.215 217.667 C 104.263 217.850,104.417 218.000,104.558 218.000 C 104.733 218.000,104.830 218.197,104.865 218.625 C 104.903 219.084,105.016 219.294,105.292 219.415 C 105.498 219.505,105.667 219.703,105.667 219.853 C 105.667 220.004,105.812 220.166,105.989 220.212 C 106.224 220.273,106.325 220.470,106.364 220.940 C 106.407 221.463,106.488 221.593,106.796 221.637 C 107.043 221.672,107.160 221.789,107.130 221.971 C 107.100 222.152,107.215 222.269,107.458 222.303 C 107.706 222.338,107.833 222.471,107.833 222.694 C 107.833 222.891,107.972 223.067,108.167 223.118 C 108.418 223.184,108.500 223.346,108.500 223.774 C 108.500 224.230,108.584 224.374,108.927 224.504 C 109.161 224.593,109.307 224.741,109.251 224.832 C 109.194 224.924,109.333 225.083,109.560 225.186 C 109.786 225.290,110.009 225.515,110.054 225.687 C 110.099 225.859,110.255 226.000,110.401 226.000 C 110.547 226.000,110.667 226.114,110.667 226.254 C 110.667 226.393,110.852 226.592,111.078 226.695 C 111.304 226.798,111.449 226.948,111.399 227.028 C 111.202 227.347,111.524 228.167,111.847 228.167 C 112.052 228.167,112.167 228.282,112.167 228.488 C 112.167 228.695,112.301 228.829,112.542 228.863 C 112.748 228.893,112.926 229.010,112.938 229.125 C 112.949 229.240,112.968 229.408,112.979 229.500 C 112.991 229.592,113.150 229.667,113.333 229.667 C 113.556 229.667,113.667 229.778,113.667 230.000 C 113.667 230.222,113.778 230.333,114.000 230.333 C 114.221 230.333,114.333 230.444,114.333 230.663 C 114.333 230.872,114.479 231.030,114.729 231.093 C 114.963 231.152,115.117 231.307,115.104 231.471 C 115.091 231.642,115.229 231.771,115.458 231.803 C 115.694 231.837,115.833 231.972,115.833 232.167 C 115.833 232.361,115.973 232.497,116.208 232.530 C 116.451 232.565,116.567 232.682,116.537 232.863 C 116.507 233.045,116.623 233.161,116.870 233.196 C 117.121 233.232,117.250 233.363,117.250 233.583 C 117.250 233.802,117.379 233.935,117.625 233.970 C 117.860 234.003,118.000 234.139,118.000 234.333 C 118.000 234.528,118.140 234.663,118.375 234.697 C 118.623 234.732,118.734 234.847,118.702 235.037 C 118.671 235.226,118.799 235.360,119.077 235.430 C 119.343 235.497,119.500 235.653,119.500 235.851 C 119.500 236.056,119.617 236.167,119.833 236.167 C 120.052 236.167,120.167 236.278,120.167 236.488 C 120.167 236.695,120.301 236.829,120.542 236.863 C 120.789 236.899,120.900 237.014,120.869 237.204 C 120.837 237.392,120.965 237.527,121.244 237.597 C 121.510 237.663,121.667 237.820,121.667 238.018 C 121.667 238.222,121.784 238.333,122.000 238.333 C 122.216 238.333,122.333 238.444,122.333 238.649 C 122.333 238.846,122.489 239.003,122.749 239.068 C 122.978 239.126,123.156 239.227,123.146 239.295 C 123.080 239.723,123.221 239.833,123.833 239.833 C 124.320 239.833,124.500 239.902,124.500 240.087 C 124.500 240.227,124.692 240.415,124.927 240.504 C 125.164 240.594,125.304 240.745,125.243 240.844 C 125.182 240.943,125.294 241.065,125.496 241.117 C 125.696 241.170,125.926 241.389,126.009 241.606 C 126.091 241.823,126.273 242.000,126.413 242.000 C 126.552 242.000,126.667 242.114,126.667 242.254 C 126.667 242.394,126.865 242.583,127.106 242.675 C 127.348 242.767,127.499 242.890,127.441 242.948 C 127.224 243.164,127.728 243.500,128.270 243.500 C 128.722 243.500,128.833 243.566,128.833 243.833 C 128.833 244.078,128.944 244.167,129.250 244.167 C 129.551 244.167,129.667 244.256,129.667 244.490 C 129.667 244.752,129.802 244.824,130.375 244.865 C 130.937 244.906,131.073 244.976,131.035 245.204 C 131.004 245.390,131.130 245.526,131.395 245.593 C 131.619 245.649,131.839 245.839,131.885 246.014 C 131.948 246.254,132.118 246.333,132.568 246.333 C 133.044 246.333,133.167 246.398,133.167 246.649 C 133.167 246.842,133.320 247.002,133.563 247.063 C 133.782 247.118,134.000 247.314,134.048 247.498 C 134.117 247.763,134.274 247.833,134.799 247.833 C 135.329 247.833,135.458 247.892,135.440 248.125 C 135.425 248.310,135.554 248.436,135.792 248.470 C 136.033 248.504,136.167 248.638,136.167 248.845 C 136.167 249.096,136.285 249.167,136.708 249.169 C 137.334 249.172,137.583 249.314,137.583 249.667 C 137.583 249.846,137.804 249.931,138.366 249.967 C 138.965 250.006,139.128 250.074,139.058 250.256 C 138.999 250.409,139.127 250.556,139.410 250.664 C 139.654 250.757,139.809 250.904,139.755 250.991 C 139.627 251.198,140.200 251.500,140.720 251.500 C 140.988 251.500,141.158 251.614,141.215 251.833 C 141.284 252.098,141.442 252.167,141.984 252.167 C 142.556 252.167,142.667 252.221,142.667 252.500 C 142.667 252.784,142.778 252.833,143.417 252.833 C 144.041 252.833,144.167 252.886,144.167 253.149 C 144.167 253.505,144.477 253.667,145.162 253.667 C 145.505 253.667,145.623 253.744,145.606 253.958 C 145.588 254.187,145.737 254.261,146.292 254.301 C 146.848 254.341,147.000 254.418,147.000 254.657 C 147.000 255.000,147.438 255.161,148.383 255.164 C 149.468 255.168,148.942 254.782,145.582 253.110 C 143.841 252.243,141.877 251.227,141.218 250.853 C 140.559 250.478,139.772 250.031,139.468 249.859 C 134.364 246.961,128.447 242.701,123.250 238.182 C 104.272 221.678,91.779 197.923,88.839 172.750 C 88.442 169.353,88.417 169.215,88.289 169.667 M293.604 175.090 C 293.547 175.239,293.500 175.578,293.500 175.845 C 293.500 176.111,293.426 176.648,293.336 177.039 C 293.246 177.430,293.013 178.650,292.819 179.750 C 292.624 180.850,292.428 181.951,292.382 182.197 C 292.307 182.598,292.339 182.634,292.691 182.545 C 293.261 182.401,293.328 182.221,293.331 180.811 C 293.333 179.703,293.374 179.528,293.650 179.456 C 294.157 179.323,294.387 175.042,293.896 174.881 C 293.792 174.847,293.661 174.941,293.604 175.090 M292.104 183.167 C 291.297 186.896,289.703 192.588,289.002 194.250 C 288.924 194.433,288.786 194.808,288.695 195.083 C 281.347 217.232,262.161 239.928,241.653 250.731 C 240.968 251.092,240.863 251.500,241.455 251.500 C 242.044 251.500,242.505 251.206,242.389 250.904 C 242.315 250.712,242.390 250.656,242.687 250.683 C 243.537 250.759,243.833 250.671,243.833 250.343 C 243.833 250.081,243.969 250.009,244.542 249.968 C 245.098 249.928,245.245 249.854,245.227 249.624 C 245.212 249.443,245.356 249.292,245.602 249.231 C 245.846 249.169,246.000 249.009,246.000 248.815 C 246.000 248.557,246.124 248.500,246.682 248.500 C 247.224 248.500,247.382 248.432,247.452 248.167 C 247.516 247.919,247.679 247.833,248.082 247.833 C 248.591 247.833,249.108 247.497,248.907 247.296 C 248.858 247.247,249.009 247.159,249.242 247.100 C 249.513 247.032,249.667 246.878,249.667 246.673 C 249.667 246.415,249.805 246.342,250.375 246.301 C 250.871 246.265,251.083 246.175,251.083 246.000 C 251.083 245.862,251.233 245.709,251.417 245.660 C 251.600 245.610,251.774 245.404,251.803 245.202 C 251.848 244.892,251.963 244.833,252.527 244.833 C 253.047 244.833,253.217 244.762,253.281 244.515 C 253.327 244.341,253.507 244.160,253.682 244.114 C 253.857 244.069,254.000 243.924,254.000 243.792 C 254.000 243.661,254.188 243.468,254.418 243.363 C 254.647 243.259,254.816 243.080,254.793 242.965 C 254.769 242.851,254.919 242.732,255.125 242.701 C 255.360 242.665,255.500 242.527,255.500 242.331 C 255.500 242.083,255.645 242.009,256.208 241.968 C 256.788 241.926,256.917 241.856,256.917 241.583 C 256.917 241.363,257.046 241.232,257.296 241.196 C 257.543 241.161,257.660 241.045,257.630 240.863 C 257.600 240.682,257.715 240.565,257.958 240.530 C 258.199 240.496,258.333 240.362,258.333 240.155 C 258.333 239.890,258.453 239.833,259.016 239.833 C 259.554 239.833,259.716 239.764,259.784 239.506 C 259.831 239.325,260.011 239.133,260.185 239.078 C 260.358 239.023,260.500 238.838,260.500 238.667 C 260.500 238.472,260.639 238.337,260.875 238.303 C 261.112 238.269,261.242 238.143,261.227 237.958 C 261.212 237.774,261.321 237.667,261.523 237.667 C 261.709 237.667,261.907 237.494,262.000 237.250 C 262.087 237.021,262.273 236.833,262.413 236.833 C 262.556 236.833,262.667 236.688,262.667 236.500 C 262.667 236.273,262.778 236.167,263.016 236.167 C 263.222 236.167,263.399 236.033,263.450 235.839 C 263.497 235.659,263.678 235.466,263.851 235.411 C 264.025 235.356,264.167 235.202,264.167 235.068 C 264.167 234.934,264.353 234.754,264.580 234.668 C 264.843 234.568,264.960 234.423,264.901 234.269 C 264.839 234.107,264.936 234.008,265.196 233.972 C 265.445 233.936,265.575 233.812,265.560 233.624 C 265.546 233.443,265.689 233.292,265.935 233.231 C 266.173 233.171,266.333 233.008,266.333 232.827 C 266.333 232.640,266.478 232.501,266.708 232.466 C 266.915 232.434,267.064 232.315,267.040 232.201 C 267.017 232.086,267.186 231.921,267.415 231.834 C 267.645 231.746,267.833 231.566,267.833 231.432 C 267.833 231.298,267.983 231.142,268.167 231.083 C 268.350 231.025,268.500 230.838,268.500 230.667 C 268.500 230.472,268.639 230.337,268.875 230.303 C 269.118 230.269,269.234 230.152,269.204 229.971 C 269.174 229.789,269.290 229.672,269.537 229.637 C 269.846 229.593,269.927 229.463,269.969 228.940 C 270.008 228.470,270.110 228.273,270.344 228.212 C 270.522 228.166,270.667 227.995,270.667 227.832 C 270.667 227.653,270.837 227.493,271.098 227.428 C 271.385 227.356,271.499 227.238,271.438 227.078 C 271.377 226.920,271.486 226.801,271.756 226.734 C 272.004 226.671,272.167 226.511,272.167 226.327 C 272.167 226.139,272.310 226.003,272.542 225.970 C 272.780 225.936,272.908 225.810,272.893 225.624 C 272.879 225.443,273.023 225.292,273.268 225.231 C 273.603 225.147,273.667 225.027,273.667 224.482 C 273.667 223.944,273.724 223.833,274.000 223.833 C 274.213 223.833,274.333 223.722,274.333 223.527 C 274.333 223.358,274.525 223.133,274.759 223.026 C 274.994 222.919,275.139 222.757,275.083 222.666 C 275.026 222.574,275.172 222.426,275.407 222.337 C 275.751 222.206,275.833 222.064,275.833 221.599 C 275.833 221.169,275.918 220.996,276.167 220.917 C 276.350 220.858,276.500 220.702,276.500 220.568 C 276.500 220.434,276.688 220.254,276.917 220.167 C 277.250 220.040,277.333 219.893,277.333 219.432 C 277.333 219.002,277.418 218.829,277.667 218.750 C 277.850 218.692,278.000 218.499,278.000 218.322 C 278.000 218.118,278.115 218.000,278.313 218.000 C 278.616 218.000,278.942 217.144,278.754 216.841 C 278.712 216.772,278.866 216.629,279.098 216.524 C 279.329 216.418,279.473 216.257,279.416 216.166 C 279.360 216.074,279.505 215.926,279.740 215.837 C 280.100 215.700,280.167 215.570,280.167 215.004 C 280.167 214.454,280.224 214.333,280.487 214.333 C 280.812 214.333,281.130 213.512,280.930 213.189 C 280.878 213.104,281.014 212.991,281.231 212.936 C 281.449 212.882,281.666 212.686,281.714 212.502 C 281.763 212.317,281.922 212.167,282.068 212.167 C 282.315 212.167,282.415 211.831,282.368 211.161 C 282.358 211.020,282.515 210.833,282.717 210.744 C 282.994 210.623,283.083 210.441,283.083 210.000 C 283.083 209.558,283.164 209.395,283.417 209.327 C 283.663 209.260,283.764 209.070,283.803 208.600 C 283.841 208.137,283.944 207.940,284.178 207.879 C 284.474 207.801,284.581 207.486,284.535 206.828 C 284.525 206.687,284.682 206.499,284.883 206.411 C 285.161 206.289,285.250 206.108,285.250 205.667 C 285.250 205.224,285.331 205.062,285.583 204.993 C 285.838 204.925,285.929 204.737,285.968 204.202 C 286.008 203.652,286.085 203.500,286.323 203.500 C 286.673 203.500,286.828 203.061,286.831 202.061 C 286.833 201.513,286.902 201.354,287.167 201.285 C 287.424 201.218,287.500 201.058,287.500 200.583 C 287.500 200.109,287.576 199.949,287.833 199.882 C 288.123 199.806,288.167 199.654,288.167 198.731 C 288.167 197.789,288.204 197.667,288.490 197.667 C 288.791 197.667,289.110 196.663,288.993 196.081 C 288.920 195.714,289.017 195.534,289.333 195.452 C 289.621 195.377,289.667 195.224,289.667 194.349 C 289.667 193.455,289.705 193.333,289.990 193.333 C 290.348 193.333,290.629 192.170,290.426 191.529 C 290.342 191.265,290.402 191.180,290.701 191.138 C 291.046 191.089,291.088 190.983,291.132 190.059 C 291.173 189.206,291.236 189.021,291.507 188.950 C 291.799 188.874,291.833 188.713,291.833 187.432 C 291.833 186.111,291.859 186.000,292.167 186.000 C 292.419 186.000,292.500 185.888,292.501 185.542 C 292.502 185.290,292.546 184.708,292.599 184.250 C 292.711 183.275,292.283 182.339,292.104 183.167 M237.953 252.683 C 236.506 253.416,235.367 254.086,235.421 254.174 C 235.627 254.508,237.190 254.362,237.285 254.000 C 237.338 253.799,237.514 253.666,237.728 253.664 C 238.414 253.660,238.833 253.464,238.833 253.147 C 238.833 252.892,238.958 252.833,239.500 252.833 C 240.056 252.833,240.167 252.778,240.167 252.500 C 240.167 252.281,240.278 252.167,240.490 252.167 C 240.883 252.167,241.036 251.954,240.899 251.598 C 240.762 251.241,240.914 251.185,237.953 252.683 M234.292 254.455 C 233.774 254.715,233.710 254.917,234.097 255.065 C 234.469 255.208,235.167 255.004,235.167 254.752 C 235.167 254.349,234.770 254.214,234.292 254.455 M231.961 255.488 C 230.289 256.171,230.086 256.500,231.333 256.500 C 232.089 256.500,232.167 256.465,232.167 256.121 C 232.167 255.782,232.234 255.748,232.801 255.802 C 233.545 255.873,233.922 255.572,233.611 255.154 C 233.438 254.922,233.255 254.959,231.961 255.488 M149.323 255.263 C 149.048 255.594,149.378 255.858,149.987 255.793 C 150.547 255.733,150.594 255.430,150.080 255.195 C 149.546 254.952,149.583 254.949,149.323 255.263 M150.730 255.909 C 150.574 256.315,150.821 256.500,151.517 256.500 C 152.057 256.500,152.172 256.554,152.132 256.792 C 152.091 257.037,152.237 257.091,153.058 257.134 C 154.406 257.204,154.234 256.930,152.494 256.235 C 150.875 255.588,150.854 255.585,150.730 255.909 M228.167 257.021 C 226.675 257.622,226.477 257.779,227.036 257.920 C 227.822 258.117,228.583 257.951,228.583 257.583 C 228.583 257.310,228.712 257.241,229.292 257.199 C 229.864 257.157,230.000 257.085,230.000 256.824 C 230.000 256.383,229.658 256.420,228.167 257.021 M154.336 257.329 C 154.108 257.755,154.454 258.000,155.283 258.000 C 156.252 258.000,156.231 257.616,155.245 257.291 C 154.549 257.062,154.477 257.065,154.336 257.329 M156.601 258.097 C 156.412 258.590,156.499 258.667,157.250 258.667 C 158.156 258.667,158.216 258.428,157.396 258.086 C 156.662 257.779,156.724 257.778,156.601 258.097 M225.305 258.059 C 224.489 258.314,224.374 258.461,224.852 258.641 C 225.668 258.948,226.600 258.621,226.399 258.098 C 226.284 257.797,226.159 257.793,225.305 258.059 M223.208 258.797 C 222.302 259.097,222.260 259.500,223.135 259.500 C 223.966 259.500,224.431 259.183,224.131 258.821 C 223.942 258.592,223.834 258.590,223.208 258.797 M158.720 258.933 C 158.587 259.283,158.961 259.514,159.570 259.460 C 160.246 259.400,160.288 259.075,159.649 258.852 C 158.948 258.608,158.842 258.617,158.720 258.933 M160.939 259.585 C 160.766 260.036,160.970 260.167,161.843 260.167 C 162.765 260.167,163.015 259.784,162.208 259.608 C 161.956 259.553,161.592 259.463,161.398 259.407 C 161.157 259.338,161.012 259.395,160.939 259.585 M220.625 259.550 C 219.631 259.829,219.827 260.167,220.982 260.167 C 221.955 260.167,222.210 260.016,222.045 259.542 C 221.961 259.300,221.508 259.303,220.625 259.550 M163.854 260.319 C 163.451 260.571,163.828 260.833,164.593 260.833 C 165.378 260.833,165.586 260.595,164.958 260.415 C 164.163 260.186,164.077 260.179,163.854 260.319 M218.417 260.247 C 218.325 260.278,218.044 260.350,217.792 260.405 C 216.990 260.582,217.277 260.854,218.208 260.800 C 218.849 260.764,219.083 260.684,219.083 260.502 C 219.083 260.260,218.749 260.132,218.417 260.247 M165.992 261.014 C 165.763 261.444,166.246 261.667,167.406 261.667 C 168.720 261.667,168.636 261.303,167.244 260.970 C 166.211 260.723,166.147 260.725,165.992 261.014 M214.958 261.050 C 214.109 261.288,214.150 261.625,215.030 261.637 C 215.937 261.650,216.431 261.402,216.157 261.072 C 215.935 260.804,215.843 260.803,214.958 261.050 M170.443 261.779 C 170.239 261.983,170.710 262.333,171.187 262.333 C 171.631 262.333,171.834 262.113,171.542 261.950 C 171.259 261.791,170.542 261.680,170.443 261.779 M211.554 261.783 C 211.354 261.822,211.101 261.961,210.992 262.093 C 210.734 262.404,212.157 262.443,212.467 262.133 C 212.897 261.703,212.582 261.583,211.554 261.783 M173.224 262.591 C 173.064 263.008,173.269 263.071,174.939 263.122 C 176.827 263.179,176.839 262.763,174.957 262.491 C 173.528 262.284,173.338 262.295,173.224 262.591 M207.522 262.505 C 205.904 262.740,205.862 263.156,207.462 263.114 C 208.891 263.076,209.101 263.002,208.942 262.591 C 208.836 262.312,208.844 262.313,207.522 262.505 M179.836 263.272 C 179.842 263.642,180.152 263.785,180.960 263.791 C 181.764 263.797,182.190 263.636,181.878 263.445 C 181.616 263.284,179.833 263.134,179.836 263.272 M201.417 263.282 C 200.130 263.451,200.235 263.662,201.663 263.775 C 202.321 263.828,202.772 263.787,202.925 263.660 C 203.439 263.233,202.873 263.091,201.417 263.282 " stroke="none" fill="#fafaf9" fill-rule="evenodd"></path><path id="path3" d="M148.073 131.208 L 147.583 131.750 148.125 131.260 C 148.423 130.991,148.667 130.748,148.667 130.719 C 148.667 130.590,148.529 130.703,148.073 131.208 M146.242 133.849 C 146.095 134.132,146.005 134.394,146.041 134.430 C 146.077 134.466,146.232 134.234,146.384 133.915 C 146.727 133.196,146.608 133.141,146.242 133.849 M225.798 134.457 C 226.375 134.490,227.275 134.489,227.798 134.456 C 228.322 134.423,227.850 134.397,226.750 134.397 C 225.650 134.397,225.222 134.424,225.798 134.457 M234.847 136.229 C 235.019 136.382,236.000 136.833,236.000 136.759 C 236.000 136.663,235.076 136.167,234.897 136.167 C 234.832 136.167,234.809 136.195,234.847 136.229 M213.162 139.958 L 212.083 141.083 213.208 140.005 C 213.827 139.412,214.333 138.905,214.333 138.880 C 214.333 138.757,214.164 138.913,213.162 139.958 M159.548 140.417 C 159.549 140.875,159.581 141.043,159.620 140.789 C 159.658 140.536,159.657 140.161,159.617 139.956 C 159.578 139.751,159.546 139.958,159.548 140.417 M144.564 142.083 C 144.564 143.183,144.591 143.612,144.624 143.035 C 144.656 142.459,144.656 141.559,144.623 141.035 C 144.590 140.512,144.563 140.983,144.564 142.083 M159.709 142.083 C 159.711 142.450,159.745 142.580,159.785 142.373 C 159.824 142.166,159.823 141.866,159.781 141.706 C 159.739 141.547,159.707 141.717,159.709 142.083 M242.167 142.333 C 242.362 142.608,242.560 142.833,242.606 142.833 C 242.652 142.833,242.529 142.608,242.333 142.333 C 242.138 142.058,241.940 141.833,241.894 141.833 C 241.848 141.833,241.971 142.058,242.167 142.333 M226.208 143.448 C 226.369 143.490,226.631 143.490,226.792 143.448 C 226.952 143.406,226.821 143.372,226.500 143.372 C 226.179 143.372,226.048 143.406,226.208 143.448 M224.875 143.615 C 225.035 143.657,225.298 143.657,225.458 143.615 C 225.619 143.573,225.487 143.539,225.167 143.539 C 224.846 143.539,224.715 143.573,224.875 143.615 M227.542 143.615 C 227.702 143.657,227.965 143.657,228.125 143.615 C 228.285 143.573,228.154 143.539,227.833 143.539 C 227.512 143.539,227.381 143.573,227.542 143.615 M243.583 144.667 C 243.726 144.942,243.879 145.167,243.925 145.167 C 243.971 145.167,243.892 144.942,243.750 144.667 C 243.608 144.392,243.454 144.167,243.408 144.167 C 243.362 144.167,243.441 144.392,243.583 144.667 M144.705 145.000 C 144.705 145.321,144.740 145.452,144.782 145.292 C 144.823 145.131,144.823 144.869,144.782 144.708 C 144.740 144.548,144.705 144.679,144.705 145.000 M208.879 147.167 C 208.879 147.579,208.911 147.748,208.951 147.542 C 208.991 147.335,208.991 146.998,208.951 146.792 C 208.911 146.585,208.879 146.754,208.879 147.167 M236.333 147.052 C 236.333 147.093,236.609 147.337,236.945 147.594 C 237.282 147.850,237.504 147.975,237.440 147.871 C 237.308 147.658,236.333 146.936,236.333 147.052 M238.167 148.583 C 238.478 148.904,238.770 149.167,238.815 149.167 C 238.861 149.167,238.644 148.904,238.333 148.583 C 238.022 148.262,237.730 148.000,237.685 148.000 C 237.639 148.000,237.856 148.262,238.167 148.583 M209.000 148.287 C 209.000 148.384,209.154 148.640,209.343 148.857 L 209.686 149.250 209.394 148.750 C 209.008 148.092,209.000 148.082,209.000 148.287 M214.324 149.125 L 213.750 149.750 214.375 149.176 C 214.957 148.641,215.077 148.500,214.949 148.500 C 214.922 148.500,214.640 148.781,214.324 149.125 M211.627 150.285 C 211.834 150.324,212.134 150.323,212.294 150.281 C 212.453 150.239,212.283 150.207,211.917 150.209 C 211.550 150.211,211.420 150.245,211.627 150.285 M157.583 150.833 C 157.441 151.108,157.362 151.333,157.408 151.333 C 157.454 151.333,157.608 151.108,157.750 150.833 C 157.892 150.558,157.971 150.333,157.925 150.333 C 157.879 150.333,157.726 150.558,157.583 150.833 M241.375 150.615 C 241.535 150.657,241.798 150.657,241.958 150.615 C 242.119 150.573,241.987 150.539,241.667 150.539 C 241.346 150.539,241.215 150.573,241.375 150.615 M151.875 154.948 C 152.035 154.990,152.298 154.990,152.458 154.948 C 152.619 154.906,152.487 154.872,152.167 154.872 C 151.846 154.872,151.715 154.906,151.875 154.948 M151.640 173.921 C 150.619 174.475,150.438 176.547,151.087 180.250 C 151.378 181.916,152.110 184.723,152.430 185.403 C 152.563 185.686,152.643 185.804,152.607 185.667 C 152.572 185.529,152.341 184.667,152.094 183.750 C 151.174 180.337,151.009 179.336,150.968 176.895 C 150.928 174.571,151.439 173.607,152.548 173.918 C 152.838 174.000,152.863 173.984,152.667 173.847 C 152.340 173.618,152.175 173.630,151.640 173.921 M229.745 173.916 C 229.467 174.038,228.583 174.725,227.781 175.444 C 225.324 177.644,224.493 178.303,222.417 179.701 C 220.402 181.058,219.772 181.534,220.452 181.184 C 221.891 180.445,225.639 177.618,227.417 175.931 C 231.653 171.912,232.849 174.375,230.849 183.000 C 230.775 183.321,230.441 184.370,230.107 185.331 C 229.480 187.137,229.399 187.441,229.667 186.981 C 230.153 186.149,231.215 182.505,231.579 180.415 C 232.469 175.314,231.817 173.005,229.745 173.916 M154.167 175.189 C 156.703 177.682,161.437 180.888,166.417 183.485 C 168.300 184.467,171.022 185.687,171.199 185.628 C 171.289 185.598,170.925 185.395,170.390 185.177 C 165.187 183.056,155.958 177.262,154.155 174.985 C 153.868 174.623,153.473 174.245,153.275 174.144 C 153.078 174.042,153.479 174.513,154.167 175.189 M217.875 182.540 C 216.752 183.190,215.861 183.750,215.895 183.784 C 215.970 183.859,217.587 182.989,218.795 182.223 C 219.278 181.917,219.747 181.667,219.837 181.667 C 219.926 181.667,220.000 181.592,220.000 181.500 C 220.000 181.289,220.236 181.174,217.875 182.540 M213.750 184.752 C 212.742 185.241,211.978 185.648,212.054 185.654 C 212.250 185.672,215.667 184.038,215.667 183.926 C 215.667 183.809,215.876 183.719,213.750 184.752 M173.333 186.482 C 173.471 186.581,173.958 186.781,174.417 186.926 C 174.875 187.072,175.400 187.253,175.583 187.328 C 177.581 188.155,184.847 189.707,186.449 189.650 C 186.706 189.641,186.017 189.497,184.917 189.331 C 183.817 189.165,182.542 188.947,182.083 188.847 C 181.625 188.746,181.025 188.618,180.750 188.563 C 179.295 188.268,175.408 187.133,173.417 186.421 C 173.149 186.325,173.133 186.337,173.333 186.482 M207.917 187.095 C 206.817 187.488,206.029 187.815,206.167 187.820 C 206.458 187.832,209.463 186.800,209.932 186.528 C 210.468 186.217,210.001 186.348,207.917 187.095 M153.011 186.874 C 152.994 187.061,154.039 189.350,154.109 189.280 C 154.143 189.246,153.912 188.663,153.596 187.984 C 153.280 187.305,153.017 186.806,153.011 186.874 M228.699 188.782 C 228.316 189.575,228.031 190.253,228.066 190.288 C 228.101 190.323,228.440 189.700,228.821 188.904 C 229.201 188.108,229.485 187.430,229.453 187.398 C 229.421 187.366,229.082 187.989,228.699 188.782 M204.000 188.266 C 201.974 188.780,200.404 189.101,198.833 189.322 C 196.595 189.638,196.692 189.619,197.265 189.644 C 198.590 189.702,205.833 188.232,205.833 187.905 C 205.833 187.805,205.774 187.817,204.000 188.266 M188.167 189.853 C 189.788 189.987,194.091 189.988,195.583 189.854 C 196.225 189.797,194.537 189.750,191.833 189.750 C 189.129 189.750,187.479 189.796,188.167 189.853 M155.092 191.306 C 155.430 191.932,155.856 192.626,156.038 192.848 C 156.308 193.177,156.300 193.129,155.989 192.583 C 155.780 192.217,155.391 191.523,155.125 191.042 C 154.859 190.560,154.604 190.167,154.559 190.167 C 154.514 190.167,154.753 190.679,155.092 191.306 M227.386 191.292 C 223.016 198.786,215.681 204.869,207.038 208.166 C 206.005 208.560,205.189 208.911,205.225 208.947 C 205.370 209.092,209.400 207.403,211.468 206.330 C 216.455 203.742,220.476 200.555,223.858 196.511 C 225.570 194.463,228.261 190.500,227.940 190.500 C 227.889 190.500,227.640 190.856,227.386 191.292 M156.688 193.875 C 159.582 198.027,163.519 201.851,167.674 204.543 C 169.206 205.535,171.667 206.914,171.667 206.780 C 171.667 206.734,171.085 206.380,170.375 205.992 C 165.197 203.166,160.177 198.701,157.022 194.115 C 156.726 193.685,156.445 193.333,156.397 193.333 C 156.350 193.333,156.481 193.577,156.688 193.875 M172.888 207.436 C 173.585 207.813,176.694 209.028,176.770 208.952 C 176.806 208.916,176.291 208.676,175.626 208.418 C 174.961 208.160,174.046 207.773,173.594 207.558 C 172.684 207.125,172.143 207.032,172.888 207.436 M177.766 209.327 C 178.233 209.493,178.871 209.674,179.183 209.729 C 179.495 209.784,179.225 209.645,178.583 209.420 C 177.942 209.194,177.304 209.013,177.167 209.017 C 177.029 209.021,177.299 209.160,177.766 209.327 M203.333 209.434 C 202.730 209.652,202.502 209.783,202.817 209.728 C 203.578 209.595,205.171 209.022,204.750 209.033 C 204.567 209.037,203.929 209.218,203.333 209.434 M180.083 210.000 C 180.267 210.079,180.567 210.141,180.750 210.138 C 181.018 210.134,181.002 210.107,180.667 210.000 C 180.097 209.817,179.659 209.817,180.083 210.000 M200.417 210.161 C 199.775 210.326,199.400 210.466,199.583 210.472 C 199.767 210.477,200.442 210.343,201.083 210.172 C 201.725 210.002,202.100 209.862,201.917 209.862 C 201.733 209.861,201.058 209.996,200.417 210.161 M181.417 210.333 C 181.600 210.412,181.975 210.473,182.250 210.469 L 182.750 210.461 182.250 210.333 C 181.975 210.263,181.600 210.203,181.417 210.198 L 181.083 210.190 181.417 210.333 M183.083 210.639 C 184.936 211.453,198.398 211.388,199.152 210.561 C 199.206 210.502,198.875 210.505,198.417 210.569 C 192.793 211.352,189.267 211.357,183.500 210.592 C 183.004 210.526,182.863 210.542,183.083 210.639 " stroke="none" fill="#85633b" fill-rule="evenodd"></path><path id="path4" d="M150.554 129.388 C 149.692 129.706,149.709 129.855,150.573 129.561 C 151.136 129.369,151.711 129.315,152.558 129.374 C 153.228 129.420,153.604 129.398,153.417 129.323 C 152.919 129.125,151.158 129.164,150.554 129.388 M153.847 129.553 C 154.112 129.756,155.167 130.307,155.167 130.242 C 155.167 130.130,154.118 129.501,153.931 129.501 C 153.847 129.500,153.809 129.524,153.847 129.553 M148.709 130.483 C 147.918 131.108,146.941 132.296,146.502 133.167 C 146.211 133.744,146.478 133.425,147.243 132.279 C 147.600 131.745,148.234 131.036,148.654 130.704 C 149.700 129.876,149.747 129.833,149.632 129.833 C 149.576 129.833,149.160 130.125,148.709 130.483 M156.025 131.084 C 156.851 131.971,157.799 133.398,158.159 134.297 C 158.279 134.598,158.412 134.810,158.454 134.768 C 158.712 134.510,157.014 131.875,155.974 130.917 L 155.250 130.251 156.025 131.084 M226.129 134.289 C 226.521 134.324,227.121 134.324,227.463 134.288 C 227.804 134.252,227.483 134.223,226.750 134.224 C 226.017 134.224,225.737 134.254,226.129 134.289 M223.250 134.498 C 223.043 134.587,223.263 134.605,223.833 134.547 C 224.338 134.495,224.781 134.426,224.819 134.393 C 224.963 134.269,223.569 134.363,223.250 134.498 M228.681 134.394 C 228.719 134.428,229.162 134.498,229.667 134.550 C 230.258 134.611,230.436 134.595,230.167 134.506 C 229.754 134.368,228.547 134.277,228.681 134.394 M221.833 134.841 C 221.651 134.964,221.718 134.980,222.083 134.898 C 222.696 134.761,222.829 134.666,222.403 134.669 C 222.227 134.671,221.971 134.748,221.833 134.841 M230.847 134.727 C 230.885 134.759,231.142 134.837,231.417 134.898 C 231.782 134.980,231.849 134.964,231.667 134.841 C 231.442 134.689,230.680 134.582,230.847 134.727 M220.417 135.244 C 219.773 135.539,220.072 135.543,220.833 135.250 C 221.154 135.126,221.304 135.023,221.167 135.020 C 221.029 135.017,220.692 135.118,220.417 135.244 M232.583 135.255 C 233.447 135.566,233.747 135.558,233.023 135.243 C 232.714 135.110,232.339 135.003,232.189 135.007 C 232.039 135.011,232.217 135.123,232.583 135.255 M145.262 136.012 C 145.118 136.495,145.031 136.920,145.068 136.957 C 145.105 136.994,145.251 136.627,145.393 136.143 C 145.535 135.658,145.622 135.233,145.587 135.198 C 145.552 135.163,145.405 135.529,145.262 136.012 M217.964 136.293 C 215.445 137.585,212.590 139.983,211.348 141.850 C 211.030 142.329,211.057 142.314,211.526 141.750 C 213.575 139.288,215.552 137.684,218.152 136.375 C 219.107 135.894,219.804 135.500,219.700 135.500 C 219.596 135.500,218.814 135.857,217.964 136.293 M234.238 135.827 C 234.598 136.014,234.934 136.167,234.984 136.167 C 235.189 136.167,234.385 135.703,234.000 135.600 C 233.760 135.536,233.862 135.632,234.238 135.827 M158.935 136.250 C 159.072 136.863,159.168 136.996,159.164 136.569 C 159.163 136.394,159.085 136.137,158.992 136.000 C 158.869 135.817,158.853 135.885,158.935 136.250 M236.067 136.707 C 236.242 136.822,236.917 137.270,237.567 137.702 C 238.830 138.540,240.268 139.846,241.567 141.333 C 242.007 141.837,242.195 141.993,241.984 141.678 C 241.019 140.238,237.920 137.530,236.417 136.814 C 236.050 136.639,235.893 136.591,236.067 136.707 M159.276 137.583 C 159.332 137.950,159.405 138.281,159.439 138.319 C 159.565 138.463,159.471 137.570,159.326 137.250 C 159.220 137.018,159.205 137.119,159.276 137.583 M144.767 137.850 C 144.706 138.232,144.688 138.577,144.728 138.617 C 144.768 138.657,144.853 138.379,144.917 138.000 C 144.981 137.621,144.998 137.276,144.955 137.233 C 144.913 137.190,144.828 137.468,144.767 137.850 M159.542 139.083 C 159.544 139.450,159.578 139.580,159.618 139.373 C 159.658 139.166,159.656 138.866,159.615 138.706 C 159.573 138.547,159.540 138.717,159.542 139.083 M144.545 139.500 C 144.545 139.912,144.578 140.081,144.618 139.875 C 144.657 139.669,144.657 139.331,144.618 139.125 C 144.578 138.919,144.545 139.087,144.545 139.500 M159.717 140.667 C 159.717 141.171,159.748 141.377,159.786 141.125 C 159.824 140.873,159.824 140.460,159.786 140.208 C 159.748 139.956,159.717 140.162,159.717 140.667 M144.395 142.000 C 144.395 142.962,144.423 143.356,144.456 142.875 C 144.490 142.394,144.490 141.606,144.456 141.125 C 144.423 140.644,144.395 141.037,144.395 142.000 M159.778 142.400 C 159.717 142.847,159.676 143.484,159.688 143.815 C 159.700 144.146,159.775 143.854,159.855 143.167 C 160.017 141.770,159.953 141.128,159.778 142.400 M210.532 142.958 C 210.101 143.568,208.833 146.106,208.833 146.359 C 208.833 146.469,209.174 145.859,209.590 145.004 C 210.007 144.148,210.499 143.235,210.685 142.974 C 210.871 142.713,210.985 142.500,210.939 142.500 C 210.894 142.500,210.710 142.706,210.532 142.958 M243.352 143.998 C 243.558 144.364,243.753 144.636,243.786 144.602 C 243.858 144.531,243.169 143.333,243.056 143.333 C 243.014 143.333,243.147 143.632,243.352 143.998 M225.000 143.650 C 224.588 143.705,225.300 143.752,226.583 143.754 C 228.171 143.758,228.624 143.723,228.000 143.646 C 226.914 143.512,226.026 143.513,225.000 143.650 M223.167 144.000 C 222.832 144.107,222.815 144.134,223.083 144.138 C 223.267 144.141,223.567 144.079,223.750 144.000 C 224.175 143.817,223.737 143.817,223.167 144.000 M229.417 144.000 C 229.600 144.079,229.900 144.141,230.083 144.138 C 230.351 144.134,230.335 144.107,230.000 144.000 C 229.430 143.817,228.992 143.817,229.417 144.000 M144.545 144.667 C 144.545 145.079,144.578 145.248,144.618 145.042 C 144.657 144.835,144.657 144.498,144.618 144.292 C 144.578 144.085,144.545 144.254,144.545 144.667 M221.750 144.411 C 221.106 144.705,221.406 144.710,222.167 144.417 C 222.487 144.293,222.637 144.190,222.500 144.187 C 222.362 144.184,222.025 144.285,221.750 144.411 M231.000 144.417 C 231.761 144.710,232.060 144.705,231.417 144.411 C 231.142 144.285,230.804 144.184,230.667 144.187 C 230.529 144.190,230.679 144.293,231.000 144.417 M159.523 145.000 C 159.499 145.495,159.241 146.779,158.904 148.083 C 158.837 148.342,158.853 148.361,158.974 148.167 C 159.233 147.753,159.697 145.403,159.621 144.893 C 159.556 144.458,159.548 144.467,159.523 145.000 M220.333 145.000 C 220.012 145.176,219.825 145.319,219.917 145.319 C 220.008 145.319,220.346 145.176,220.667 145.000 C 220.987 144.824,221.175 144.681,221.083 144.681 C 220.992 144.681,220.654 144.824,220.333 145.000 M232.500 145.000 C 232.821 145.176,233.158 145.319,233.250 145.319 C 233.342 145.319,233.154 145.176,232.833 145.000 C 232.512 144.824,232.175 144.681,232.083 144.681 C 231.992 144.681,232.179 144.824,232.500 145.000 M218.875 145.761 C 218.485 145.995,218.167 146.225,218.167 146.273 C 218.167 146.363,219.291 145.724,219.575 145.473 C 219.861 145.220,219.595 145.330,218.875 145.761 M233.583 145.454 C 233.675 145.542,234.050 145.782,234.417 145.988 C 234.783 146.194,234.933 146.237,234.750 146.085 C 234.378 145.775,233.322 145.205,233.583 145.454 M144.700 145.833 C 144.700 146.063,144.760 146.438,144.833 146.667 L 144.967 147.083 144.967 146.667 C 144.967 146.438,144.907 146.063,144.833 145.833 L 144.700 145.417 144.700 145.833 M216.646 147.292 C 215.402 148.230,213.386 150.000,213.562 150.000 C 213.611 150.000,214.161 149.544,214.784 148.986 C 215.407 148.428,216.385 147.634,216.958 147.221 C 217.860 146.572,218.129 146.332,217.958 146.334 C 217.935 146.334,217.345 146.765,216.646 147.292 M244.635 147.339 C 244.700 148.243,244.654 148.433,244.194 149.174 C 243.912 149.628,243.716 150.000,243.761 150.000 C 244.373 150.000,245.124 147.217,244.695 146.540 C 244.622 146.425,244.595 146.784,244.635 147.339 M208.751 147.487 C 208.791 147.984,208.906 148.472,209.005 148.571 C 209.135 148.699,209.157 148.672,209.082 148.475 C 209.024 148.324,208.910 147.836,208.828 147.392 L 208.678 146.583 208.751 147.487 M235.667 146.727 C 235.667 146.773,235.892 146.971,236.167 147.167 C 236.442 147.362,236.667 147.485,236.667 147.439 C 236.667 147.394,236.442 147.196,236.167 147.000 C 235.892 146.804,235.667 146.681,235.667 146.727 M145.023 147.333 C 145.023 147.471,145.088 147.733,145.167 147.917 C 145.257 148.127,145.310 148.158,145.310 148.000 C 145.310 147.862,145.245 147.600,145.167 147.417 C 145.076 147.207,145.023 147.176,145.023 147.333 M237.407 148.065 C 239.195 149.756,240.117 150.503,240.407 150.495 C 240.504 150.492,240.433 150.406,240.250 150.303 C 240.067 150.200,239.354 149.625,238.667 149.026 C 237.304 147.838,236.596 147.297,237.407 148.065 M145.428 148.708 C 146.661 152.656,150.334 155.769,152.899 155.039 C 153.270 154.934,153.116 154.902,152.233 154.901 C 149.619 154.897,147.095 152.707,145.842 149.356 C 145.477 148.381,145.181 147.917,145.428 148.708 M158.464 149.242 C 158.309 149.659,158.216 150.000,158.256 150.000 C 158.372 150.000,158.846 148.789,158.793 148.629 C 158.766 148.549,158.618 148.825,158.464 149.242 M209.393 149.177 C 209.675 149.621,210.795 150.338,211.189 150.327 C 211.314 150.323,211.154 150.207,210.833 150.068 C 210.512 149.929,209.996 149.576,209.686 149.283 C 209.194 148.818,209.157 148.804,209.393 149.177 M212.967 150.088 C 212.919 150.137,212.550 150.241,212.148 150.320 C 211.566 150.434,211.519 150.466,211.917 150.474 C 212.379 150.484,213.640 150.044,213.236 150.014 C 213.137 150.006,213.016 150.040,212.967 150.088 M240.917 150.659 C 241.237 150.804,242.129 150.898,241.986 150.772 C 241.948 150.738,241.617 150.665,241.250 150.609 C 240.785 150.539,240.684 150.554,240.917 150.659 M156.873 152.131 C 156.131 153.150,154.936 154.161,153.987 154.573 C 153.673 154.709,153.533 154.823,153.676 154.827 C 154.375 154.844,156.704 152.875,157.384 151.691 C 157.839 150.899,157.654 151.058,156.873 152.131 M151.626 173.762 C 150.470 174.388,150.202 176.817,150.918 180.167 C 151.046 180.762,151.119 180.950,151.081 180.583 C 150.607 175.997,150.599 175.726,150.905 174.923 C 151.499 173.370,152.895 173.395,154.152 174.981 C 155.599 176.808,162.144 181.156,167.417 183.792 C 169.762 184.965,174.913 187.057,175.211 186.957 C 175.324 186.919,175.004 186.753,174.500 186.588 C 167.907 184.429,158.748 179.174,154.583 175.161 C 152.780 173.423,152.497 173.289,151.626 173.762 M229.516 173.872 C 229.112 174.068,228.100 174.875,227.266 175.665 C 222.674 180.019,214.935 184.527,208.000 186.888 C 198.489 190.125,189.593 190.496,179.583 188.072 C 176.312 187.280,176.322 187.282,176.801 187.493 C 177.173 187.658,179.824 188.378,180.667 188.543 C 180.896 188.589,181.646 188.744,182.333 188.889 C 193.863 191.319,206.617 189.055,217.833 182.588 C 221.969 180.204,224.442 178.426,227.834 175.399 C 230.106 173.373,231.119 173.220,231.785 174.805 C 232.183 175.751,231.906 179.386,231.227 182.136 C 231.084 182.715,231.004 183.227,231.051 183.273 C 231.165 183.387,231.630 181.296,231.924 179.348 C 232.612 174.782,231.738 172.796,229.516 173.872 M151.167 181.486 C 151.167 181.758,151.794 184.273,152.023 184.917 C 152.222 185.477,152.251 185.553,152.996 187.417 C 156.611 196.464,164.901 204.462,174.799 208.452 C 175.376 208.684,175.884 208.838,175.928 208.794 C 175.972 208.750,175.545 208.546,174.980 208.339 C 164.164 204.396,154.505 193.922,151.737 183.136 C 151.308 181.465,151.167 181.057,151.167 181.486 M230.597 184.403 C 225.577 201.557,204.948 213.693,185.333 211.033 C 182.968 210.712,179.235 209.851,177.264 209.172 C 176.722 208.985,176.252 208.859,176.219 208.892 C 176.084 209.028,178.638 209.844,180.667 210.314 C 184.908 211.296,185.901 211.404,190.750 211.411 C 207.498 211.433,222.175 202.847,228.913 189.083 C 229.841 187.186,231.055 183.912,230.947 183.596 C 230.913 183.498,230.755 183.860,230.597 184.403 M175.667 187.167 C 175.804 187.256,176.029 187.328,176.167 187.328 C 176.389 187.328,176.389 187.310,176.167 187.167 C 176.029 187.078,175.804 187.005,175.667 187.005 C 175.444 187.005,175.444 187.023,175.667 187.167 " stroke="none" fill="#b08843" fill-rule="evenodd"></path></g></svg>