<?xml version="1.0" encoding="utf-8"?>
<!-- Generator: Adobe Illustrator 19.0.0, SVG Export Plug-In . SVG Version: 6.00 Build 0)  -->
<svg version="1.1" id="Слой_1" xmlns="http://www.w3.org/2000/svg" xmlns:xlink="http://www.w3.org/1999/xlink" x="0px" y="0px"
	 viewBox="0 0 200 200" style="enable-background:new 0 0 200 200;" xml:space="preserve">
<style type="text/css">
	.st0{fill:#FEF3DB;}
	.st1{fill:#FDF8EE;}
	.st2{fill:#FDF1D8;}
	.st3{fill:#FBDDE6;}
	.st4{fill:#FEF8EC;}
	.st5{fill:#ED5080;}
	.st6{fill:#FECF5E;}
	.st7{fill:#FECD55;}
	.st8{fill:#FCC353;}
	.st9{fill:#FCC049;}
	.st10{fill:#FED67F;}
	.st11{fill:#FCCD69;}
	.st12{fill:#5F493B;}
	.st13{fill:#303030;}
	.st14{fill:#534037;}
	.st15{fill:#27292D;}
	.st16{fill:#544237;}
	.st17{fill:#25282E;}
	.st18{fill:#23262D;}
	.st19{fill:#533F39;}
	.st20{fill:#513F36;}
	.st21{fill:#554238;}
	.st22{fill:#564237;}
	.st23{fill:#554139;}
</style>
<g id="XMLID_1_">
	<path id="XMLID_97_" class="st0" d="M109.1,4.2c0,0.1,0,0.2,0,0.3C108.8,4.9,108.4,5,108,5c-2-0.2-4.1,0.6-6.1-0.5
		c0-0.1,0-0.2,0-0.3C104.3,4.2,106.7,4.2,109.1,4.2z"/>
	<path id="XMLID_96_" class="st1" d="M198.1,93.3c0.1,0,0.2,0,0.3,0c0,2.4,0,4.8,0,7.2l-0.1,0l-0.1,0c-0.3-0.2-0.4-0.5-0.4-0.8
		c0-2.1-0.3-4.1,0.2-6.2C198,93.4,198.1,93.3,198.1,93.3z"/>
	<path id="XMLID_95_" class="st2" d="M107.8,189.8c-1.4,0-2.8,0-4.2,0c-0.1-0.2-0.1-0.4,0.1-0.5c1.3-0.4,2.7-0.4,4,0
		C107.8,189.4,107.9,189.6,107.8,189.8z"/>
	<path id="XMLID_94_" class="st3" d="M2.4,115.8l-0.1,0l-0.1,0c0-0.9,0-1.7,0-2.6c0.1,0,0.2,0,0.3,0C3.1,114,3.1,114.9,2.4,115.8z"
		/>
	<path id="XMLID_93_" class="st4" d="M103.5,189.5c0,0.1,0,0.2,0,0.3c-0.7,0-1.3,0-2,0c0-0.1,0-0.2,0-0.3
		C102.2,188.9,102.9,188.9,103.5,189.5z"/>
	<path id="XMLID_92_" class="st4" d="M107.8,189.8c0-0.1,0-0.2,0-0.3c0.5-0.5,1.1-0.5,1.6,0c0,0.1,0,0.2,0,0.3
		C108.9,189.8,108.3,189.8,107.8,189.8z"/>
	<path id="XMLID_91_" class="st5" d="M2.4,115.8c0-0.9,0-1.8,0-2.6c0.6-5.5,2.7-10.2,7.4-13.5c1.1-0.8,2.3-1.4,3.4-2.1
		c1.7-1.4,3.8-1.3,5.8-1.5c2.4,0.1,4.8,0.5,6.9,1.7c3.5,1.8,5.6,4.7,7.3,8.5c0.5-1.3,1.1-2.3,1.7-3.3c5.9-9,17.5-8.4,23.7-2.5
		c6,5.6,7,12.6,5.1,20.2C62,127.9,58,134,53,139.4c-4.7,4.9-10,9-15.8,12.5c-0.9,0.6-1.9,1.1-2.8,1.6c-0.7,0.4-1.4,0.6-2-0.3
		c-3.1-2.2-6.4-4-9.5-6.2c-7.4-5.5-13.7-12-17.6-20.5C3.7,123.1,2.7,119.5,2.4,115.8z"/>
	<path id="XMLID_90_" class="st6" d="M19.1,96.5c-2,0-4,0.5-5.9,1c-0.3-3.8,0-7.7,0.5-11.5c1.5-12.4,5.2-24,11.5-34.8
		c8.8-15.3,21-27.3,36.5-35.7C73,9.4,85.1,5.7,98,4.8c0.9-0.1,1.7-0.1,2.6-0.2c3.2,0.2,6.5,0.2,9.7,0c6.3,0.2,12.5,1.3,18.6,2.8
		c9.3,2.3,17.8,6.4,26.1,11.1c0.1,0.1,0.2,0.2,0.3,0.3c0.2,1.2,1,2,1.6,3c1.5,2.7,2.9,5.6,4.2,8.4c0.2,0.4,0.6,1,0,1.5
		c-0.6,0.1-1-0.3-1.4-0.6c-9.5-7.9-20.3-13.4-32.2-16.6c-5.2-1.4-10.5-2.2-15.9-2.7c-6.7-0.6-13.4-0.2-20,0.8
		C84.2,13.7,77,15.9,70.1,19c-6.5,2.9-12.5,6.6-18.1,11c-6.4,5-11.9,10.8-16.6,17.4C27.9,57.9,23,69.6,20.7,82.5c-0.7,4-1,8-1.2,12
		C19.5,95.2,19.6,95.9,19.1,96.5z"/>
	<path id="XMLID_89_" class="st7" d="M110.3,4.6c-3.2,0.4-6.5,0.4-9.7,0c0.4,0,0.8-0.1,1.3-0.1c2.4,0,4.8,0,7.2,0
		C109.5,4.5,109.9,4.6,110.3,4.6z"/>
	<path id="XMLID_88_" class="st8" d="M161.2,31.6c-1.7-3.9-3.5-7.8-5.8-11.5c-0.2-0.3-1.3-0.8-0.1-1.3c6.2,3.8,11.7,8.4,16.7,13.6
		c13.7,14.3,22,31.2,25.1,50.7c0.5,3.3,0.6,6.7,1,10l-0.1,0c-0.1,2.2-0.2,4.3,0.1,6.5c0,0.2,0.1,0.5,0.1,0.7
		c-0.5,8.1-1.7,16-4.1,23.8c-3.4,11.1-8.7,21.3-16,30.3c-14.4,17.9-33,29-55.5,33.4c-4.3,0.8-8.7,1.3-13.1,1.5c-0.5,0-1.1,0-1.6,0
		c-1.4,0-2.8,0-4.3,0c-0.7,0-1.3,0-2,0c-9.3-0.5-18.3-2.2-27-5.3c-11.2-4-21.3-9.9-30.2-17.8c-4.3-3.8-8.2-7.9-11.7-12.4
		c-0.1-0.2-0.5-0.3-0.2-0.7c0.7,0.5,1.3,0.2,1.9-0.2c0.9-0.5,1.8-1,2.7-1.5c1.7,0.3,3.1,1.2,4.7,1.8c8.2,3.3,16.7,5.3,25.4,6.2
		c6.2,0.6,12.3,0.5,18.5-0.1c8.2-0.8,16.1-2.8,23.8-5.8c8.9-3.4,17-8.2,24.4-14.2c5.3-4.3,10.1-9.1,14.3-14.4
		c7.5-9.4,13-19.9,16.3-31.5c2.2-7.6,3.4-15.3,3.6-23.2c0.2-10.1-1-19.9-3.9-29.6c-0.2-0.7-0.6-1.3-0.2-2c0.7-0.4,1.1,0.2,1.6,0.5
		c4.6,3.8,9.1,7.7,12.6,12.7c0.3,0.3,0.5,0.7,0.8,1c-0.3-0.4-0.6-0.8-0.9-1.1c-3.8-5.7-8-11.1-12.8-15.9c-1-1-2.2-1.8-3.2-2.8
		C161.7,32.7,161.1,32.4,161.2,31.6z"/>
	<path id="XMLID_87_" class="st9" d="M198,99.8c-0.5-2.2-0.4-4.3-0.1-6.5C198.2,95.4,198.1,97.6,198,99.8z"/>
	<path id="XMLID_86_" class="st6" d="M164.2,38.8c0.4,2.9,1.6,5.6,2.1,8.4c0.7,3.9,1.4,7.8,1.9,11.8c0.4,3,0.4,6.1,0.4,9.1
		c-0.1,5-0.3,10-1.3,15c-1,5.1-2.1,10.1-3.8,15c-3.5,10.1-8.6,19.3-15.2,27.6c-6.4,7.9-13.8,14.6-22.3,20.1
		c-6.8,4.4-14,7.8-21.8,10.2c-5.2,1.6-10.4,2.9-15.7,3.7c-5.6,0.8-11.3,1.1-17,0.7c-9-0.6-17.8-2.1-26.3-5.3c-2.8-1-5.7-1.8-8.2-3.5
		c3.6-2.4,7.2-4.7,10.4-7.5c7.7-6.6,13.9-14.3,16.1-24.4c1.5-7,0.4-13.5-5-18.8c-6.9-6.7-20-6.5-24.8,5c-0.2,0.4-0.3,0.7-0.6,1.4
		c-1.4-4.1-3.8-7.1-7.2-9.2c-0.8-1.3-0.2-2.7,0-4c2.2-14.5,7.6-27.7,16.5-39.4c10.8-14.3,24.7-24.2,41.7-30
		c10.9-3.7,22.1-5,33.4-4.2c16.8,1.1,32,6.8,45.5,16.8C163.5,37.7,164.2,38,164.2,38.8z"/>
	<path id="XMLID_85_" class="st10" d="M164.2,38.8c-10.6-8.3-22.5-13.6-35.7-16.4c-7.7-1.6-15.5-1.9-23.3-1.5
		c-9.8,0.6-19.3,3-28.4,7c-7.8,3.4-14.9,8-21.4,13.4c-4.1,3.4-7.7,7.3-11,11.5c-3.8,4.8-7.2,9.9-10,15.4c-4.2,8.3-6.7,17.1-8.3,26.2
		c-0.2,1.2-0.2,2.5-0.4,3.7c-2.2-1-4.4-1.6-6.8-1.7c0.1-12.3,2.7-24,7.8-35.2c3.4-7.5,7.9-14.4,13.3-20.6c7.2-8.3,15.7-14.9,25.4-20
		c7-3.6,14.4-6.3,22.1-7.8c7.2-1.5,14.5-2.2,21.8-1.7c13.2,0.8,25.7,4.2,37.3,10.6c4.9,2.7,9.5,5.8,13.7,9.5
		c0.2,0.2,0.6,0.3,0.9,0.4c1.7,2.2,4,3.6,5.8,5.6c4.1,4.6,8.1,9.2,11.2,14.6c0.1,0.3,0,0.4-0.3,0.3
		C173.9,47.1,169.3,42.7,164.2,38.8z"/>
	<path id="XMLID_84_" class="st11" d="M177.9,52.2c0.1-0.1,0.2-0.2,0.3-0.3c0.9,0.9,0.9,1,1.2,2.3C178.8,53.3,178.3,52.7,177.9,52.2
		z"/>
	<path id="XMLID_83_" class="st12" d="M103.9,148.3c-6.2-0.2-12.2-5.7-13.4-12.3c-0.8-4.2,0.1-8.1,2.6-11.6c0.6-0.9,0.5-1.4,0-2.2
		c-4.7-6.8-3.3-16,3.3-20.9c6.5-5,15.8-3.9,21.1,2.5c0.5,0.6,1.1,1.1,1.2,1.9c-0.1,0.5-0.1,1.1,0,1.6c-0.2,0.9-0.7,1.5-1.6,1.6
		c-0.5-0.1-1.1-0.1-1.6,0c-1-0.1-1.4-1-1.9-1.6c-3.7-4.6-10.4-5.1-14.7-1c-4.1,3.9-4.1,10.6,0.1,14.5c2.2,2,2.2,3.1,0,5.2
		c-4.1,4-4.2,10.3-0.2,14.3c3.9,3.9,10.3,3.9,14.2,0c0.8-0.8,1.2-2.1,2.5-2.4c0.6,0.1,1.1,0.1,1.7,0c1.8,0.9,2.4,2.3,1.3,3.9
		c-2.6,3.8-6.2,6.1-10.8,6.6C106.2,148.1,105,148.1,103.9,148.3z"/>
	<path id="XMLID_82_" class="st13" d="M146.9,66.9c6,0.2,12.4,4.9,14.4,10.6c0.5,1.4,0.2,2.5-0.9,3.3c-1.2,0.9-2.4,0.8-3.6-0.2
		c-1-0.8-1.9-1.7-3-2.5c-5.6-4.1-11.4-4.1-17-0.1c-1,0.7-1.8,1.5-2.8,2.3c-1.1,1-2.3,1.2-3.6,0.3c-1.2-0.9-1.5-2.1-0.9-3.5
		c2.1-5.6,8.5-10.2,14.5-10.3C144.9,67.1,145.9,67.1,146.9,66.9z"/>
	<path id="XMLID_81_" class="st13" d="M67.3,66.9c6.1,0.3,12.3,4.9,14.3,10.6c0.6,1.8,0,3.1-1.9,3.7c-0.4,0-0.9,0-1.3,0
		c-1,0-1.5-0.8-2.1-1.4c-3.1-2.7-6.4-4.7-10.6-4.8c-4.3-0.1-7.8,2-10.9,4.8c-0.7,0.7-1.5,1.3-2.6,1.2c-2-0.1-3.3-2.1-2.4-4
		c2.8-6,7.5-9.6,14.2-10.2C65.2,67.1,66.2,67.1,67.3,66.9z"/>
	<path id="XMLID_80_" class="st14" d="M103.9,148.3c1.2-0.5,2.4-0.5,3.6,0C106.2,148.5,105.1,148.5,103.9,148.3z"/>
	<path id="XMLID_79_" class="st15" d="M67.3,66.9c-1.1,0.4-2.2,0.4-3.2,0C65.2,66.7,66.2,66.7,67.3,66.9z"/>
	<path id="XMLID_78_" class="st16" d="M116.9,137.9c-0.6,0.5-1.1,0.5-1.7,0C115.8,137.5,116.4,137.5,116.9,137.9z"/>
	<path id="XMLID_77_" class="st17" d="M146.9,66.9c-1,0.4-1.9,0.5-2.9,0C144.9,66.7,145.9,66.7,146.9,66.9z"/>
	<path id="XMLID_76_" class="st18" d="M78.4,81.2c0.4-0.5,0.9-0.5,1.3,0C79.3,81.5,78.8,81.5,78.4,81.2z"/>
	<path id="XMLID_75_" class="st19" d="M118.5,107.3c-0.5-0.5-0.5-1.1,0-1.6C118.9,106.2,118.9,106.7,118.5,107.3z"/>
	<path id="XMLID_74_" class="st20" d="M115.3,108.9c0.5-0.5,1.1-0.5,1.6,0C116.4,109.2,115.8,109.2,115.3,108.9z"/>
	<path id="XMLID_73_" class="st21" d="M90.7,132.1c0,0.7,0,1.5,0,2.2c-0.1,0-0.1,0-0.2,0c0-0.7,0-1.5,0-2.2
		C90.6,132.1,90.7,132.1,90.7,132.1z"/>
	<path id="XMLID_72_" class="st22" d="M106.8,143.7c-0.7,0-1.5,0-2.2,0c0-0.1,0-0.1,0-0.2c0.7,0,1.5,0,2.2,0
		C106.8,143.6,106.8,143.7,106.8,143.7z"/>
	<path id="XMLID_71_" class="st23" d="M90.8,112.6c0,0.6,0,1.2,0,1.8c-0.1,0-0.1,0-0.2,0c0-0.6,0-1.2,0-1.9
		C90.6,112.6,90.7,112.6,90.8,112.6z"/>
</g>
</svg>
